<?xml version="1.0" encoding="UTF-8"?>
<svg version="1.1" xmlns="http://www.w3.org/2000/svg" width="312" height="550">
<path d="M0 0 C1.21584495 0.00092179 2.43168989 0.00184359 3.68437862 0.00279331 C4.35901919 0.00193889 5.03365975 0.00108446 5.72874397 0.00020415 C8.00588764 -0.00145256 10.28295882 0.00407379 12.56009579 0.00952244 C14.18583836 0.00980429 15.81158107 0.00964661 17.43732357 0.00907993 C21.86482015 0.0087919 26.29228989 0.01468956 30.71978021 0.02165389 C35.34159444 0.02788646 39.96340922 0.02849115 44.58522701 0.0296793 C53.34356839 0.0327929 62.10189735 0.04100667 70.86023325 0.05102879 C80.82862615 0.06218903 90.79701963 0.06770015 100.76541722 0.07272422 C121.27698043 0.08318927 141.78853244 0.10078926 162.30008602 0.12304783 C161.20521195 2.00883062 160.10920302 3.89395455 159.01273251 5.77880955 C158.09741001 7.3535857 158.09741001 7.3535857 157.16359615 8.96017551 C154.322833 13.78170611 151.34687066 18.51450829 148.36258602 23.24804783 C142.92492438 31.9101786 137.52848739 40.5960841 132.17508602 49.31054783 C125.76328606 59.74633165 119.32899868 70.16780134 112.87674618 80.57861423 C110.18300047 84.92581425 107.49168685 89.2745196 104.80008602 93.62304783 C103.71676389 95.37305476 102.63343057 97.12305477 101.55008602 98.87304783 C100.74571102 100.17242283 100.74571102 100.17242283 99.92508602 101.49804783 C93.96675269 111.12304783 88.00841935 120.74804783 82.05008602 130.37304783 C81.51359432 131.23970066 80.97710262 132.10635349 80.4243536 132.99926853 C79.34350652 134.74522728 78.26261476 136.49115838 77.18167782 138.2370615 C74.4349335 142.67366419 71.68902262 147.1107791 68.94461727 151.54882908 C68.38645321 152.45117283 67.82828915 153.35351658 67.25321102 154.28320408 C66.21514961 155.96140335 65.17735503 157.63976773 64.13992977 159.31836033 C59.22031726 167.2704324 54.25622407 175.19322694 49.30008602 183.12304783 C89.56008602 183.12304783 129.82008602 183.12304783 171.30008602 183.12304783 C166.56642867 192.59036253 158.23895301 200.56740086 151.34305477 208.58007908 C148.45778027 211.93447411 145.5932954 215.30596772 142.73758602 218.68554783 C142.0630035 219.48388035 142.0630035 219.48388035 141.37479305 220.2983408 C140.46940161 221.37018123 139.56412785 222.44212109 138.65897274 223.51416111 C136.37462417 226.21877072 134.08719094 228.9207691 131.80008602 231.62304783 C130.88340476 232.70636882 129.96673809 233.78970215 129.05008602 234.87304783 C68.55008602 306.37304783 68.55008602 306.37304783 67.17459774 307.99853611 C66.25944189 309.08014304 65.34440252 310.16184852 64.42948055 311.2436533 C62.11565124 313.97922722 59.79972131 316.71297257 57.47977352 319.44336033 C53.24928978 324.4261913 49.04154922 329.42007498 44.92508602 334.49804783 C40.75787478 339.6211785 36.43696145 344.59899711 32.0974493 349.57568455 C28.93556159 353.21023986 25.83165661 356.87816651 22.80008602 360.62304783 C18.68115436 365.71113988 14.39861268 370.64308606 10.09696102 375.57617283 C6.93529371 379.21061282 3.8315113 382.87834601 0.80008602 386.62304783 C-3.31884564 391.71113988 -7.60138732 396.64308606 -11.90303898 401.57617283 C-15.06470629 405.21061282 -18.1684887 408.87834601 -21.19991398 412.62304783 C-25.31884564 417.71113988 -29.60138732 422.64308606 -33.90303898 427.57617283 C-37.06470629 431.21061282 -40.1684887 434.87834601 -43.19991398 438.62304783 C-47.31884564 443.71113988 -51.60138732 448.64308606 -55.90303898 453.57617283 C-59.06470629 457.21061282 -62.1684887 460.87834601 -65.19991398 464.62304783 C-69.31884564 469.71113988 -73.60138732 474.64308606 -77.90303898 479.57617283 C-81.06470629 483.21061282 -84.1684887 486.87834601 -87.19991398 490.62304783 C-91.31884564 495.71113988 -95.60138732 500.64308606 -99.90303898 505.57617283 C-103.06470629 509.21061282 -106.1684887 512.87834601 -109.19991398 516.62304783 C-113.31124345 521.70174894 -117.58304852 526.62729552 -121.88106632 531.54760838 C-126.01021811 536.28778691 -129.99108059 541.12076569 -133.89522648 546.04882908 C-135.69991398 548.12304783 -135.69991398 548.12304783 -138.69991398 550.12304783 C-138.02207215 545.88928983 -136.61343929 542.10136081 -134.98897648 538.15820408 C-134.56995312 537.12641277 -134.56995312 537.12641277 -134.14246464 536.0737772 C-133.2077163 533.77586547 -132.26639932 531.48070672 -131.32491398 529.18554783 C-130.65235948 527.53689599 -129.98008441 525.88813013 -129.30806828 524.23925877 C-123.29093301 509.49481813 -117.19917286 494.78092938 -111.10933781 480.0664072 C-105.20252858 465.78948767 -99.34478601 451.49302635 -93.51241398 437.18554783 C-93.09347874 436.15790318 -92.6745435 435.13025852 -92.24291325 434.07147312 C-91.82597202 433.04870274 -91.4090308 432.02593235 -90.97945499 430.97216892 C-90.14800484 428.93261348 -89.31654336 426.89306266 -88.48507023 424.85351658 C-88.07922199 423.8579575 -87.67337376 422.86239841 -87.25522709 421.83667088 C-83.33316871 412.21843903 -79.39458479 402.60702455 -75.44991398 392.99804783 C-75.12673191 392.21076298 -74.80354984 391.42347813 -74.47057438 390.61233616 C-72.85914409 386.68708314 -71.24738328 382.76196595 -69.63546085 378.83691502 C-67.66112638 374.02906809 -65.68815648 369.22066193 -63.71553898 364.41211033 C-63.38409885 363.60418034 -63.05265873 362.79625034 -62.71117496 361.96383762 C-61.37702136 358.71157232 -60.04292215 355.45928471 -58.70888615 352.20697117 C-55.28897218 343.86941233 -51.86842518 335.53211666 -48.44399357 327.19641209 C-47.00079705 323.68324839 -45.55810165 320.169879 -44.11544132 316.65649509 C-43.43535151 315.00063119 -42.7550231 313.34486527 -42.0744257 311.68920994 C-41.12343886 309.37574697 -40.17331898 307.06192951 -39.22335148 304.74804783 C-38.95517612 304.09630589 -38.68700077 303.44456394 -38.41069889 302.77307224 C-35.4577171 295.5754902 -32.58968012 288.34746317 -29.69991398 281.12304783 C-66.32991398 280.79304783 -102.95991398 280.46304783 -140.69991398 280.12304783 C-139.19901606 275.62035407 -137.65227866 271.73060493 -135.59566593 267.50048923 C-135.13617211 266.5523844 -135.13617211 266.5523844 -134.66739559 265.58512592 C-133.65745938 263.50466603 -132.64182322 261.4270523 -131.62569523 259.34961033 C-130.90752989 257.87517791 -130.18945809 256.40069993 -129.47147465 254.92617893 C-121.73135225 239.05637604 -113.81473379 223.27490583 -105.88741398 207.49804783 C-103.06576481 201.88218174 -100.24580352 196.26547692 -97.43038273 190.64648533 C-97.0886792 189.96459896 -96.74697567 189.28271259 -96.39491749 188.580163 C-92.28623265 180.37465793 -88.24017405 172.14399272 -84.31319523 163.84961033 C-79.71720389 154.14596681 -74.94659177 144.53472318 -70.13741398 134.93554783 C-69.75624739 134.17465477 -69.3750808 133.41376171 -68.9823637 132.62981129 C-65.82586039 126.33082479 -62.66413104 120.03446447 -59.50228214 113.73816013 C-56.75329419 108.26347361 -54.00620498 102.78784097 -51.26241398 97.31054783 C-50.88164078 96.55048058 -50.50086758 95.79041332 -50.10855579 95.00731373 C-45.21178319 85.22582676 -40.40092322 75.410783 -35.71740055 65.52499485 C-30.2957543 54.10860519 -24.6222776 42.816512 -18.96212101 31.5170908 C-17.36005322 28.31878698 -15.76173225 25.11862604 -14.16435146 21.91797924 C-12.9202099 19.42610151 -11.67418401 16.93516989 -10.42756367 14.44453144 C-9.55066472 12.69172015 -8.67537004 10.93810656 -7.80010319 9.18447971 C-7.27510227 8.13763004 -6.75010136 7.09078037 -6.20919132 6.01220798 C-5.51616413 4.62734699 -5.51616413 4.62734699 -4.80913639 3.21450901 C-3.1811892 0.14498181 -3.1811892 0.14498181 0 0 Z " fill="#FCDA09" transform="translate(140.69991397857666,-0.1230478286743164)"/>
<path d="M0 0 C1.21584495 0.00092179 2.43168989 0.00184359 3.68437862 0.00279331 C4.35901919 0.00193889 5.03365975 0.00108446 5.72874397 0.00020415 C8.00588764 -0.00145256 10.28295882 0.00407379 12.56009579 0.00952244 C14.18583836 0.00980429 15.81158107 0.00964661 17.43732357 0.00907993 C21.86482015 0.0087919 26.29228989 0.01468956 30.71978021 0.02165389 C35.34159444 0.02788646 39.96340922 0.02849115 44.58522701 0.0296793 C53.34356839 0.0327929 62.10189735 0.04100667 70.86023325 0.05102879 C80.82862615 0.06218903 90.79701963 0.06770015 100.76541722 0.07272422 C121.27698043 0.08318927 141.78853244 0.10078926 162.30008602 0.12304783 C161.20521195 2.00883062 160.10920302 3.89395455 159.01273251 5.77880955 C158.09741001 7.3535857 158.09741001 7.3535857 157.16359615 8.96017551 C154.322833 13.78170611 151.34687066 18.51450829 148.36258602 23.24804783 C142.92492438 31.9101786 137.52848739 40.5960841 132.17508602 49.31054783 C125.76328606 59.74633165 119.32899868 70.16780134 112.87674618 80.57861423 C110.18300047 84.92581425 107.49168685 89.2745196 104.80008602 93.62304783 C103.71676389 95.37305476 102.63343057 97.12305477 101.55008602 98.87304783 C100.74571102 100.17242283 100.74571102 100.17242283 99.92508602 101.49804783 C93.96675269 111.12304783 88.00841935 120.74804783 82.05008602 130.37304783 C81.51359432 131.23970066 80.97710262 132.10635349 80.4243536 132.99926853 C79.34350652 134.74522728 78.26261476 136.49115838 77.18167782 138.2370615 C74.4349335 142.67366419 71.68902262 147.1107791 68.94461727 151.54882908 C68.38645321 152.45117283 67.82828915 153.35351658 67.25321102 154.28320408 C66.21514961 155.96140335 65.17735503 157.63976773 64.13992977 159.31836033 C59.22031726 167.2704324 54.25622407 175.19322694 49.30008602 183.12304783 C89.56008602 183.12304783 129.82008602 183.12304783 171.30008602 183.12304783 C166.56642867 192.59036253 158.23895301 200.56740086 151.34305477 208.58007908 C148.45778027 211.93447411 145.5932954 215.30596772 142.73758602 218.68554783 C142.0630035 219.48388035 142.0630035 219.48388035 141.37479305 220.2983408 C140.46940161 221.37018123 139.56412785 222.44212109 138.65897274 223.51416111 C136.37462417 226.21877072 134.08719094 228.9207691 131.80008602 231.62304783 C130.88340476 232.70636882 129.96673809 233.78970215 129.05008602 234.87304783 C68.55008602 306.37304783 68.55008602 306.37304783 67.17459774 307.99853611 C66.25944189 309.08014304 65.34440252 310.16184852 64.42948055 311.2436533 C62.11565124 313.97922722 59.79972131 316.71297257 57.47977352 319.44336033 C53.24928978 324.4261913 49.04154922 329.42007498 44.92508602 334.49804783 C40.75787478 339.6211785 36.43696145 344.59899711 32.0974493 349.57568455 C28.93556159 353.21023986 25.83165661 356.87816651 22.80008602 360.62304783 C18.68115436 365.71113988 14.39861268 370.64308606 10.09696102 375.57617283 C6.93529371 379.21061282 3.8315113 382.87834601 0.80008602 386.62304783 C-3.31884564 391.71113988 -7.60138732 396.64308606 -11.90303898 401.57617283 C-15.06470629 405.21061282 -18.1684887 408.87834601 -21.19991398 412.62304783 C-25.31884564 417.71113988 -29.60138732 422.64308606 -33.90303898 427.57617283 C-37.06470629 431.21061282 -40.1684887 434.87834601 -43.19991398 438.62304783 C-47.31884564 443.71113988 -51.60138732 448.64308606 -55.90303898 453.57617283 C-59.06470629 457.21061282 -62.1684887 460.87834601 -65.19991398 464.62304783 C-69.31884564 469.71113988 -73.60138732 474.64308606 -77.90303898 479.57617283 C-81.06470629 483.21061282 -84.1684887 486.87834601 -87.19991398 490.62304783 C-91.31884564 495.71113988 -95.60138732 500.64308606 -99.90303898 505.57617283 C-103.06470629 509.21061282 -106.1684887 512.87834601 -109.19991398 516.62304783 C-113.31124345 521.70174894 -117.58304852 526.62729552 -121.88106632 531.54760838 C-126.01021811 536.28778691 -129.99108059 541.12076569 -133.89522648 546.04882908 C-135.69991398 548.12304783 -135.69991398 548.12304783 -138.69991398 550.12304783 C-138.02207215 545.88928983 -136.61343929 542.10136081 -134.98897648 538.15820408 C-134.56995312 537.12641277 -134.56995312 537.12641277 -134.14246464 536.0737772 C-133.2077163 533.77586547 -132.26639932 531.48070672 -131.32491398 529.18554783 C-130.65235948 527.53689599 -129.98008441 525.88813013 -129.30806828 524.23925877 C-123.29093301 509.49481813 -117.19917286 494.78092938 -111.10933781 480.0664072 C-105.20252858 465.78948767 -99.34478601 451.49302635 -93.51241398 437.18554783 C-93.09347874 436.15790318 -92.6745435 435.13025852 -92.24291325 434.07147312 C-91.82597202 433.04870274 -91.4090308 432.02593235 -90.97945499 430.97216892 C-90.14800484 428.93261348 -89.31654336 426.89306266 -88.48507023 424.85351658 C-88.07922199 423.8579575 -87.67337376 422.86239841 -87.25522709 421.83667088 C-83.33316871 412.21843903 -79.39458479 402.60702455 -75.44991398 392.99804783 C-75.12673191 392.21076298 -74.80354984 391.42347813 -74.47057438 390.61233616 C-72.85914409 386.68708314 -71.24738328 382.76196595 -69.63546085 378.83691502 C-67.66112638 374.02906809 -65.68815648 369.22066193 -63.71553898 364.41211033 C-63.38409885 363.60418034 -63.05265873 362.79625034 -62.71117496 361.96383762 C-61.37702136 358.71157232 -60.04292215 355.45928471 -58.70888615 352.20697117 C-55.28897218 343.86941233 -51.86842518 335.53211666 -48.44399357 327.19641209 C-47.00079705 323.68324839 -45.55810165 320.169879 -44.11544132 316.65649509 C-43.43535151 315.00063119 -42.7550231 313.34486527 -42.0744257 311.68920994 C-41.12343886 309.37574697 -40.17331898 307.06192951 -39.22335148 304.74804783 C-38.95517612 304.09630589 -38.68700077 303.44456394 -38.41069889 302.77307224 C-35.4577171 295.5754902 -32.58968012 288.34746317 -29.69991398 281.12304783 C-66.32991398 280.79304783 -102.95991398 280.46304783 -140.69991398 280.12304783 C-139.19901606 275.62035407 -137.65227866 271.73060493 -135.59566593 267.50048923 C-135.13617211 266.5523844 -135.13617211 266.5523844 -134.66739559 265.58512592 C-133.65745938 263.50466603 -132.64182322 261.4270523 -131.62569523 259.34961033 C-130.90752989 257.87517791 -130.18945809 256.40069993 -129.47147465 254.92617893 C-121.73135225 239.05637604 -113.81473379 223.27490583 -105.88741398 207.49804783 C-103.06576481 201.88218174 -100.24580352 196.26547692 -97.43038273 190.64648533 C-97.0886792 189.96459896 -96.74697567 189.28271259 -96.39491749 188.580163 C-92.28623265 180.37465793 -88.24017405 172.14399272 -84.31319523 163.84961033 C-79.71720389 154.14596681 -74.94659177 144.53472318 -70.13741398 134.93554783 C-69.75624739 134.17465477 -69.3750808 133.41376171 -68.9823637 132.62981129 C-65.82586039 126.33082479 -62.66413104 120.03446447 -59.50228214 113.73816013 C-56.75329419 108.26347361 -54.00620498 102.78784097 -51.26241398 97.31054783 C-50.88164078 96.55048058 -50.50086758 95.79041332 -50.10855579 95.00731373 C-45.21178319 85.22582676 -40.40092322 75.410783 -35.71740055 65.52499485 C-30.2957543 54.10860519 -24.6222776 42.816512 -18.96212101 31.5170908 C-17.36005322 28.31878698 -15.76173225 25.11862604 -14.16435146 21.91797924 C-12.9202099 19.42610151 -11.67418401 16.93516989 -10.42756367 14.44453144 C-9.55066472 12.69172015 -8.67537004 10.93810656 -7.80010319 9.18447971 C-7.27510227 8.13763004 -6.75010136 7.09078037 -6.20919132 6.01220798 C-5.51616413 4.62734699 -5.51616413 4.62734699 -4.80913639 3.21450901 C-3.1811892 0.14498181 -3.1811892 0.14498181 0 0 Z M0.30008602 5.12304783 C-13.4481004 32.52815075 -13.4481004 32.52815075 -26.79366398 60.08789158 C-30.5179213 67.87752892 -34.39508087 75.59126779 -38.26241398 83.31054783 C-38.64383549 84.07195072 -39.025257 84.83335361 -39.41823673 85.61782932 C-42.5744825 91.91630085 -45.73595531 98.21214573 -48.89754581 104.50793552 C-51.64653377 109.98262206 -54.39359314 115.45826962 -57.13741398 120.93554783 C-57.51914265 121.69748447 -57.90087132 122.45942112 -58.29416752 123.24444675 C-63.12717561 132.89796939 -67.87092986 142.58559842 -72.48934269 152.34399509 C-76.56089668 160.91057833 -80.79509286 169.3933206 -85.04366398 177.87304783 C-85.41400761 178.61229496 -85.78435123 179.35154209 -86.1659174 180.11319065 C-89.22745194 186.2222525 -92.29421823 192.32868489 -95.36110783 198.43505955 C-98.02849833 203.74653476 -100.69392211 209.05898995 -103.35616398 214.37304783 C-103.72289408 215.10496656 -104.08962418 215.8368853 -104.46746731 216.59098339 C-109.90062485 227.44228722 -115.21843207 238.34215089 -120.40230656 249.3151865 C-123.17698579 255.16849253 -126.09557301 260.94862605 -129.05611515 266.70983982 C-131.01431272 270.23678302 -131.01431272 270.23678302 -131.69991398 274.12304783 C-95.06991398 274.12304783 -58.43991398 274.12304783 -20.69991398 274.12304783 C-26.96991398 289.30304783 -33.23991398 304.48304783 -39.69991398 320.12304783 C-44.95712692 332.95789873 -50.21261041 345.79332292 -55.4572382 358.63330173 C-59.24328427 367.90201693 -63.03412249 377.16877268 -66.82491398 386.43554783 C-67.1988126 387.34962406 -67.57271122 388.26370029 -67.9579401 389.20547581 C-74.87445349 406.11377632 -81.80517348 423.01622487 -88.74215031 439.91613865 C-90.74292359 444.79062772 -92.74284716 449.66546426 -94.74192142 454.54065037 C-95.42212967 456.19945573 -96.10241732 457.85822853 -96.78278446 459.51696873 C-98.4577443 463.60061342 -100.13174988 467.68464351 -101.80367374 471.7695322 C-104.78689175 479.05392859 -107.78088775 486.33321387 -110.82015324 493.5944376 C-112.15434002 496.78234317 -113.48339855 499.97237668 -114.81240177 503.16244602 C-115.44158402 504.66789543 -116.07358772 506.172169 -116.70851994 507.67520237 C-117.57837457 509.73446131 -118.43892712 511.79737579 -119.29757023 513.86132908 C-120.0324567 515.60990208 -120.0324567 515.60990208 -120.78218937 517.39379978 C-121.08503849 518.29445164 -121.38788761 519.19510349 -121.69991398 520.12304783 C-121.36991398 520.78304783 -121.03991398 521.44304783 -120.69991398 522.12304783 C-120.18944523 521.4914072 -119.67897648 520.85976658 -119.15303898 520.20898533 C-113.78471266 513.60327883 -108.29418576 507.11781557 -102.74288273 500.66601658 C-99.85760822 497.31162154 -96.99312336 493.94012794 -94.13741398 490.56054783 C-93.46283146 489.76221531 -93.46283146 489.76221531 -92.77462101 488.94775486 C-91.86922956 487.87591443 -90.9639558 486.80397457 -90.0588007 485.73193455 C-87.77445212 483.02732493 -85.4870189 480.32532656 -83.19991398 477.62304783 C-82.28323272 476.53972684 -81.36656605 475.45639351 -80.44991398 474.37304783 C13.05008602 363.87304783 13.05008602 363.87304783 14.4255743 362.24755955 C15.34073015 361.16595262 16.25576953 360.08424713 17.17069149 359.00244236 C19.4845208 356.26686844 21.80045073 353.53312308 24.12039852 350.80273533 C28.35088226 345.81990436 32.55862282 340.82602068 36.67508602 335.74804783 C40.84229726 330.62491716 45.16321059 325.64709854 49.50272274 320.67041111 C52.66461046 317.0358558 55.76851543 313.36792915 58.80008602 309.62304783 C62.91901769 304.53495577 67.20155936 299.60300959 71.50321102 294.66992283 C74.66487833 291.03548284 77.76866074 287.36774965 80.80008602 283.62304783 C84.91901769 278.53495577 89.20155936 273.60300959 93.50321102 268.66992283 C96.66487833 265.03548284 99.76866074 261.36774965 102.80008602 257.62304783 C106.91901769 252.53495577 111.20155936 247.60300959 115.50321102 242.66992283 C118.66487833 239.03548284 121.76866074 235.36774965 124.80008602 231.62304783 C128.91540947 226.53941299 133.19359846 221.61123859 137.49222469 216.68310642 C141.50153815 212.07530892 145.38546647 207.38775705 149.22196102 202.63476658 C151.9922018 199.28652444 154.91146282 196.08583268 157.86649227 192.90039158 C159.50935913 191.24416972 159.50935913 191.24416972 159.30008602 189.12304783 C119.70008602 189.12304783 80.10008602 189.12304783 39.30008602 189.12304783 C52.9305208 166.40565652 52.9305208 166.40565652 58.55008602 157.49804783 C63.88386424 149.00276601 69.17421063 140.48232627 74.42508602 131.93554783 C80.83693353 121.49979314 87.27117326 111.07829449 93.72342587 100.66748142 C96.41717157 96.3202814 99.10848519 91.97157606 101.80008602 87.62304783 C102.88340815 85.87304089 103.96674148 84.12304089 105.05008602 82.37304783 C105.85446102 81.07367283 105.85446102 81.07367283 106.67508602 79.74804783 C124.55008602 50.87304783 124.55008602 50.87304783 126.17703915 48.24511814 C127.25413134 46.50505042 128.33095677 44.76481754 129.4075079 43.02441502 C132.20910169 38.49602068 135.01606326 33.97107777 137.83133602 29.45117283 C138.41205868 28.51724705 138.99278133 27.58332127 139.59110165 26.6210947 C140.69222901 24.85048191 141.79496992 23.08087104 142.8996954 21.31250095 C143.4030743 20.50232517 143.90645321 19.69214939 144.42508602 18.85742283 C144.86078915 18.15842869 145.29649227 17.45943455 145.74539852 16.73925877 C148.01665857 12.91720747 150.14092944 9.00952968 152.30008602 5.12304783 C102.14008602 5.12304783 51.98008602 5.12304783 0.30008602 5.12304783 Z " fill="#050400" transform="translate(140.69991397857666,-0.1230478286743164)"/>
</svg>
