<?xml version="1.0" encoding="UTF-8"?>
<svg version="1.1" xmlns="http://www.w3.org/2000/svg" width="100" height="100">
<path d="M0 0 C3.47554944 1.55062975 5.34902237 3.71927049 7.8515625 6.5703125 C8.30595703 7.07369141 8.76035156 7.57707031 9.22851562 8.09570312 C12.5390625 11.84433741 12.5390625 11.84433741 12.5390625 14.1328125 C21.4490625 14.1328125 30.3590625 14.1328125 39.5390625 14.1328125 C39.5390625 15.4528125 39.5390625 16.7728125 39.5390625 18.1328125 C38.2190625 18.1328125 36.8990625 18.1328125 35.5390625 18.1328125 C35.5390625 20.1128125 35.5390625 22.0928125 35.5390625 24.1328125 C34.2190625 24.1328125 32.8990625 24.1328125 31.5390625 24.1328125 C31.2090625 22.4828125 30.8790625 20.8328125 30.5390625 19.1328125 C27.85744703 20.70365968 25.22844548 22.34731892 22.6015625 24.0078125 C21.84681641 24.44867187 21.09207031 24.88953125 20.31445312 25.34375 C17.76005886 26.90051406 17.76005886 26.90051406 14.5390625 30.1328125 C14.0440625 35.0828125 14.0440625 35.0828125 13.5390625 40.1328125 C22.1190625 40.1328125 30.6990625 40.1328125 39.5390625 40.1328125 C39.5390625 41.4528125 39.5390625 42.7728125 39.5390625 44.1328125 C38.2190625 44.1328125 36.8990625 44.1328125 35.5390625 44.1328125 C35.5390625 46.1128125 35.5390625 48.0928125 35.5390625 50.1328125 C34.2190625 50.1328125 32.8990625 50.1328125 31.5390625 50.1328125 C31.2090625 48.4828125 30.8790625 46.8328125 30.5390625 45.1328125 C27.83046419 46.67305765 25.18418769 48.29881143 22.5390625 49.9453125 C21.7759375 50.37779297 21.0128125 50.81027344 20.2265625 51.25585938 C16.96490697 53.33807697 14.92462065 54.83897197 13.79516602 58.62915039 C13.25550227 66.52963314 16.55851136 71.1096075 21.4765625 76.9453125 C29.40644776 86.64256222 29.40644776 86.64256222 29.5390625 92.1328125 C22.41660657 92.91352015 16.13543439 89.50040781 9.68164062 86.88867188 C-0.78942413 82.84482253 -7.53826608 85.70475535 -17.52148438 89.69335938 C-22.00694214 91.42515482 -25.56168594 92.56953671 -30.4609375 92.1328125 C-30.28329027 84.77821699 -24.89358858 79.90603112 -20.38867188 74.56054688 C-16.30879845 69.39047089 -14.25933586 65.32978889 -14.71704102 58.62915039 C-16.09285684 54.01224302 -19.43931231 52.22445988 -23.4609375 49.9453125 C-24.605625 49.2327832 -24.605625 49.2327832 -25.7734375 48.50585938 C-27.65067609 47.344318 -29.54218866 46.22390954 -31.4609375 45.1328125 C-31.9559375 47.6078125 -31.9559375 47.6078125 -32.4609375 50.1328125 C-33.7809375 50.1328125 -35.1009375 50.1328125 -36.4609375 50.1328125 C-36.4609375 48.1528125 -36.4609375 46.1728125 -36.4609375 44.1328125 C-37.7809375 44.1328125 -39.1009375 44.1328125 -40.4609375 44.1328125 C-40.4609375 42.8128125 -40.4609375 41.4928125 -40.4609375 40.1328125 C-31.8809375 40.1328125 -23.3009375 40.1328125 -14.4609375 40.1328125 C-14.32256929 30.46124438 -14.32256929 30.46124438 -19.05859375 26.75 C-20.52584008 25.80254048 -22.01530508 24.88873699 -23.5234375 24.0078125 C-24.66135742 23.28851562 -24.66135742 23.28851562 -25.82226562 22.5546875 C-27.68542654 21.38288819 -29.56193091 20.24521999 -31.4609375 19.1328125 C-31.7909375 20.7828125 -32.1209375 22.4328125 -32.4609375 24.1328125 C-33.7809375 24.1328125 -35.1009375 24.1328125 -36.4609375 24.1328125 C-36.4609375 22.1528125 -36.4609375 20.1728125 -36.4609375 18.1328125 C-37.7809375 18.1328125 -39.1009375 18.1328125 -40.4609375 18.1328125 C-40.4609375 16.8128125 -40.4609375 15.4928125 -40.4609375 14.1328125 C-31.5509375 14.1328125 -22.6409375 14.1328125 -13.4609375 14.1328125 C-12.8009375 12.8128125 -12.1409375 11.4928125 -11.4609375 10.1328125 C-10.07987301 8.31762165 -8.63670217 6.54870054 -7.1484375 4.8203125 C-6.38917969 3.91667969 -5.62992188 3.01304687 -4.84765625 2.08203125 C-2.4609375 0.1328125 -2.4609375 0.1328125 0 0 Z M-1.4609375 7.1328125 C-4.70745342 10.30618998 -4.70745342 10.30618998 -6.4609375 14.1328125 C-2.5009375 14.1328125 1.4590625 14.1328125 5.5390625 14.1328125 C2.83937963 9.22986101 2.83937963 9.22986101 -1.4609375 7.1328125 Z M-21.4609375 18.1328125 C-19.09801094 20.65869952 -17.79631239 22.02102087 -14.4609375 23.1328125 C-14.4609375 21.4828125 -14.4609375 19.8328125 -14.4609375 18.1328125 C-16.7709375 18.1328125 -19.0809375 18.1328125 -21.4609375 18.1328125 Z M-6.4609375 18.1328125 C-5.6771875 19.2878125 -4.8934375 20.4428125 -4.0859375 21.6328125 C-3.64507812 22.2825 -3.20421875 22.9321875 -2.75 23.6015625 C-2.32460938 24.106875 -1.89921875 24.6121875 -1.4609375 25.1328125 C-0.8009375 25.1328125 -0.1409375 25.1328125 0.5390625 25.1328125 C1.89618416 23.57425269 1.89618416 23.57425269 3.1640625 21.6328125 C3.9478125 20.4778125 4.7315625 19.3228125 5.5390625 18.1328125 C1.5790625 18.1328125 -2.3809375 18.1328125 -6.4609375 18.1328125 Z M13.5390625 18.1328125 C13.5390625 19.7828125 13.5390625 21.4328125 13.5390625 23.1328125 C15.8490625 21.8128125 18.1590625 20.4928125 20.5390625 19.1328125 C20.5390625 18.8028125 20.5390625 18.4728125 20.5390625 18.1328125 C18.2290625 18.1328125 15.9190625 18.1328125 13.5390625 18.1328125 Z M-10.4609375 23.1328125 C-10.4609375 27.0928125 -10.4609375 31.0528125 -10.4609375 35.1328125 C-8.4809375 33.4828125 -6.5009375 31.8328125 -4.4609375 30.1328125 C-5.99966927 26.41421071 -6.93605138 25.77647709 -10.4609375 23.1328125 Z M5.9765625 25.6328125 C4.77 26.8703125 4.77 26.8703125 3.5390625 28.1328125 C5.07779427 31.85141429 6.01417638 32.48914791 9.5390625 35.1328125 C9.5390625 31.1728125 9.5390625 27.2128125 9.5390625 23.1328125 C8.06169268 23.01642519 8.06169268 23.01642519 5.9765625 25.6328125 Z M-1.4609375 33.1328125 C-2.81805916 34.69137231 -2.81805916 34.69137231 -4.0859375 36.6328125 C-4.8696875 37.7878125 -5.6534375 38.9428125 -6.4609375 40.1328125 C-2.5009375 40.1328125 1.4590625 40.1328125 5.5390625 40.1328125 C4.3634375 38.4003125 4.3634375 38.4003125 3.1640625 36.6328125 C2.72320312 35.983125 2.28234375 35.3334375 1.828125 34.6640625 C1.40273438 34.15875 0.97734375 33.6534375 0.5390625 33.1328125 C-0.1209375 33.1328125 -0.7809375 33.1328125 -1.4609375 33.1328125 Z M-21.4609375 44.1328125 C-19.09801094 46.65869952 -17.79631239 48.02102087 -14.4609375 49.1328125 C-14.4609375 47.4828125 -14.4609375 45.8328125 -14.4609375 44.1328125 C-16.7709375 44.1328125 -19.0809375 44.1328125 -21.4609375 44.1328125 Z M-6.4609375 44.1328125 C-5.6771875 45.2878125 -4.8934375 46.4428125 -4.0859375 47.6328125 C-3.64507812 48.2825 -3.20421875 48.9321875 -2.75 49.6015625 C-2.32460938 50.106875 -1.89921875 50.6121875 -1.4609375 51.1328125 C-0.8009375 51.1328125 -0.1409375 51.1328125 0.5390625 51.1328125 C1.89618416 49.57425269 1.89618416 49.57425269 3.1640625 47.6328125 C3.9478125 46.4778125 4.7315625 45.3228125 5.5390625 44.1328125 C1.5790625 44.1328125 -2.3809375 44.1328125 -6.4609375 44.1328125 Z M13.5390625 44.1328125 C13.5390625 45.7828125 13.5390625 47.4328125 13.5390625 49.1328125 C15.8490625 47.8128125 18.1590625 46.4928125 20.5390625 45.1328125 C20.5390625 44.8028125 20.5390625 44.4728125 20.5390625 44.1328125 C18.2290625 44.1328125 15.9190625 44.1328125 13.5390625 44.1328125 Z M-10.4609375 49.1328125 C-10.4609375 53.0928125 -10.4609375 57.0528125 -10.4609375 61.1328125 C-8.4809375 59.4828125 -6.5009375 57.8328125 -4.4609375 56.1328125 C-5.99966927 52.41421071 -6.93605138 51.77647709 -10.4609375 49.1328125 Z M5.9765625 51.6328125 C4.77 52.8703125 4.77 52.8703125 3.5390625 54.1328125 C5.07779427 57.85141429 6.01417638 58.48914791 9.5390625 61.1328125 C9.5390625 57.1728125 9.5390625 53.2128125 9.5390625 49.1328125 C8.06169268 49.01642519 8.06169268 49.01642519 5.9765625 51.6328125 Z M-1.4609375 59.1328125 C-3.26787506 60.91893561 -3.26787506 60.91893561 -5.0859375 63.1328125 C-5.71757813 63.8753125 -6.34921875 64.6178125 -7 65.3828125 C-7.72316406 66.2490625 -7.72316406 66.2490625 -8.4609375 67.1328125 C-6.73938962 70.89769292 -4.46859636 73.28345147 -1.4609375 76.1328125 C2.35590476 74.57780269 4.73101982 72.09685755 7.5390625 69.1328125 C5.86504272 65.17603848 3.40756965 62.28817037 0.5390625 59.1328125 C-0.1209375 59.1328125 -0.7809375 59.1328125 -1.4609375 59.1328125 Z M-12.4609375 72.1328125 C-13.8490465 73.94058236 -15.19667199 75.77955274 -16.5234375 77.6328125 C-17.25691406 78.65375 -17.99039063 79.6746875 -18.74609375 80.7265625 C-19.31199219 81.520625 -19.87789062 82.3146875 -20.4609375 83.1328125 C-16.47601905 84.46111865 -15.06045202 83.36485654 -11.2734375 81.6953125 C-10.18675781 81.22222656 -9.10007812 80.74914062 -7.98046875 80.26171875 C-7.14902344 79.88917969 -6.31757812 79.51664062 -5.4609375 79.1328125 C-6.43659862 77.96321263 -7.4165625 76.79720073 -8.3984375 75.6328125 C-8.94371094 74.983125 -9.48898438 74.3334375 -10.05078125 73.6640625 C-10.51613281 73.15875 -10.98148438 72.6534375 -11.4609375 72.1328125 C-11.7909375 72.1328125 -12.1209375 72.1328125 -12.4609375 72.1328125 Z M10.5390625 72.1328125 C8.5590625 74.4428125 6.5790625 76.7528125 4.5390625 79.1328125 C6.09927117 79.78416175 7.66234829 80.42864214 9.2265625 81.0703125 C10.09667969 81.42996094 10.96679688 81.78960937 11.86328125 82.16015625 C14.42085515 83.0898437 16.8611948 83.67443875 19.5390625 84.1328125 C16.99241665 79.32248146 14.54878452 75.80839102 10.5390625 72.1328125 Z " fill="#000000" transform="translate(50.4609375,3.8671875)"/>
</svg>
