<?xml version="1.0" encoding="UTF-8"?>
<svg version="1.1" xmlns="http://www.w3.org/2000/svg" width="512" height="512">
<path d="M0 0 C168.96 0 337.92 0 512 0 C512 168.96 512 337.92 512 512 C343.04 512 174.08 512 0 512 C0 343.04 0 174.08 0 0 Z " fill="#030303" transform="translate(0,0)"/>
<path d="M0 0 C0.33 0 0.66 0 1 0 C1.4640625 1.7015625 1.4640625 1.7015625 1.9375 3.4375 C2.62924531 6.78775099 2.62924531 6.78775099 4 8 C5.68709347 8.12299166 7.37920903 8.17785258 9.07055664 8.20532227 C10.15160172 8.22526749 11.23264679 8.24521271 12.34645081 8.26576233 C14.110485 8.29083107 14.110485 8.29083107 15.91015625 8.31640625 C17.70591347 8.3475779 17.70591347 8.3475779 19.53794861 8.37937927 C23.37940487 8.44500279 27.22093201 8.50381903 31.0625 8.5625 C33.65951267 8.60567305 36.25651806 8.64928693 38.85351562 8.69335938 C45.23560117 8.80069716 51.61775793 8.90243931 58 9 C58.02578125 10.26457031 58.0515625 11.52914062 58.078125 12.83203125 C58.13440266 14.49222218 58.19175007 16.1523771 58.25 17.8125 C58.26417969 18.64587891 58.27835937 19.47925781 58.29296875 20.33789062 C58.3742852 25.1535379 58.3742852 25.1535379 60.88671875 29.05859375 C64.57356408 30.70097772 67.24217197 30.25260934 71 29 C72.62496858 22.50012569 72.58207066 15.68686952 73 9 C94.78 9 116.56 9 139 9 C139 79.95 139 150.9 139 224 C114.56324219 224.06058594 90.12648438 224.12117187 64.94921875 224.18359375 C49.5136702 224.22406499 34.07812288 224.26477949 18.64257812 224.30664062 C10.537842 224.32860775 2.43310571 224.35051289 -5.67163086 224.37231445 C-7.19540243 224.37641723 -7.19540243 224.37641723 -8.74995726 224.3806029 C-25.16682349 224.42471514 -41.58369662 224.4653261 -58.00057492 224.50465261 C-74.83891477 224.54506633 -91.67724179 224.58922225 -108.51556271 224.63687855 C-118.91223826 224.66618478 -129.30891281 224.6925447 -139.70560505 224.71517897 C-146.82743279 224.7309628 -153.9492448 224.75036958 -161.07105509 224.77266841 C-165.18474224 224.78544029 -169.29841727 224.79657358 -173.41211891 224.80341911 C-177.17420722 224.80971465 -180.93625372 224.82053366 -184.6983191 224.8350333 C-186.71222803 224.84159506 -188.7261511 224.84324223 -190.74007016 224.84474558 C-191.92691441 224.85022002 -193.11375866 224.85569446 -194.33656788 224.8613348 C-195.36523025 224.86399284 -196.39389263 224.86665089 -197.45372659 224.86938947 C-200.12322379 224.8926224 -200.12322379 224.8926224 -203 226 C-203.495 229.96 -203.495 229.96 -204 234 C-204.33 233.01 -204.66 232.02 -205 231 C-209.62 231 -214.24 231 -219 231 C-219.33 231.99 -219.66 232.98 -220 234 C-220.33 231.36 -220.66 228.72 -221 226 C-244.29240107 220.17689973 -268.99333826 224.35303914 -293 224 C-293 153.05 -293 82.1 -293 9 C-271.22 9 -249.44 9 -227 9 C-226.505 16.92 -226.505 16.92 -226 25 C-225.505 26.98 -225.505 26.98 -225 29 C-223.14375 29.3403125 -223.14375 29.3403125 -221.25 29.6875 C-220.55390625 29.81511719 -219.8578125 29.94273437 -219.140625 30.07421875 C-216.45275526 30.18531553 -216.45275526 30.18531553 -213 27 C-212.67 21.06 -212.34 15.12 -212 9 C-169.76 9 -127.52 9 -84 9 C-83.67 14.94 -83.34 20.88 -83 27 C-78.75193053 30.90958805 -78.75193053 30.90958805 -71 29 C-70.67 22.4 -70.34 15.8 -70 9 C-67.70615356 8.97812622 -67.70615356 8.97812622 -65.3659668 8.95581055 C-59.70215249 8.8979184 -54.03873956 8.8206848 -48.37524414 8.73754883 C-45.92218531 8.70425674 -43.46904909 8.6762383 -41.01586914 8.65356445 C-37.49331622 8.62009771 -33.97147535 8.56778485 -30.44921875 8.51171875 C-29.34913986 8.50532883 -28.24906097 8.4989389 -27.11564636 8.49235535 C-26.09481461 8.47256119 -25.07398285 8.45276703 -24.0222168 8.43237305 C-23.12286911 8.42126999 -22.22352142 8.41016693 -21.29692078 8.39872742 C-18.5314858 7.91866961 -17.66983575 7.22064545 -16 5 C-15.67 4.01 -15.34 3.02 -15 2 C-10.05 2 -5.1 2 0 2 C0 1.34 0 0.68 0 0 Z " fill="#535353" transform="translate(333,229)"/>
<path d="M0 0 C36.63 0 73.26 0 111 0 C109.68 1.65 108.36 3.3 107 5 C106.36853849 7.78556069 106.36853849 7.78556069 106.390625 10.73828125 C106.35839844 11.80498047 106.32617188 12.87167969 106.29296875 13.97070312 C106.27878906 15.07349609 106.26460938 16.17628906 106.25 17.3125 C106.20552734 18.99569336 106.20552734 18.99569336 106.16015625 20.71289062 C106.08962583 23.47533207 106.03684507 26.23693774 106 29 C104.72125 29.02578125 103.4425 29.0515625 102.125 29.078125 C100.41663435 29.13444475 98.70830233 29.19179118 97 29.25 C96.16082031 29.26417969 95.32164063 29.27835938 94.45703125 29.29296875 C86.88502095 29.58645752 81.64804054 31.24340143 76.33203125 36.77734375 C72.9250379 42.13119044 71.22761895 48.42534075 69.3503418 54.44311523 C68.6864463 56.56586914 68.00004983 58.6803645 67.31054688 60.79492188 C64.46909433 69.20974035 64.46909433 69.20974035 64 78 C66.39518517 81.16506612 68.20113638 82.1939386 72 83 C70.59018054 90.08166393 68.48391301 96.73118514 66.03515625 103.51367188 C64.54018133 107.81080422 63.54781301 111.38073594 64 116 C65.05893971 118.38442803 65.05893971 118.38442803 67 120 C68.65581223 120.38363363 70.3230833 120.722801 72 121 C70.78816545 128.51337422 68.61521273 135.44095994 66.03271484 142.57763672 C64.55091378 146.79605619 63.28121689 150.47820081 64 155 C65.3073314 157.51780673 65.3073314 157.51780673 68 159 C71.0842439 159.61207163 74.11212312 159.69514593 77.25 159.75 C80.1375 159.8325 83.025 159.915 86 160 C86 166.27 86 172.54 86 179 C84.24171875 179.03738281 82.4834375 179.07476562 80.671875 179.11328125 C78.36456184 179.1789365 76.05727113 179.24538399 73.75 179.3125 C72.59113281 179.33505859 71.43226562 179.35761719 70.23828125 179.38085938 C69.12324219 179.41630859 68.00820312 179.45175781 66.859375 179.48828125 C65.31975098 179.52755737 65.31975098 179.52755737 63.74902344 179.56762695 C60.65760294 180.05385304 59.24535003 180.8537628 57 183 C56.27491571 185.88320917 56.66361924 187.97257312 57 191 C60.56433139 193.37622092 63.0634243 193.28232871 67.17552376 193.25891972 C68.28446305 193.26446441 68.28446305 193.26446441 69.41580516 193.27012113 C71.91270065 193.28015017 74.40937112 193.27586403 76.90628052 193.27174377 C78.70657219 193.27602747 80.50686194 193.28118956 82.30714881 193.28715843 C87.26954117 193.30106975 92.23187236 193.30251378 97.19428134 193.30201519 C102.53991484 193.30364798 107.88552112 193.31676567 113.23114014 193.32855225 C122.49810815 193.34744541 131.76506293 193.35913713 141.03204727 193.36609077 C154.43175429 193.37624279 167.83142122 193.39829352 181.23110746 193.42347669 C202.97095777 193.46410236 224.7108119 193.49655347 246.45068359 193.52319336 C248.40360743 193.52558931 248.40360743 193.52558931 250.39598428 193.52803367 C252.35140378 193.53043202 252.35140378 193.53043202 254.34632671 193.53287882 C272.83424056 193.55557269 291.32215047 193.58020297 309.81005859 193.60717773 C311.11103509 193.60907388 312.41201159 193.61097003 313.75241162 193.61292363 C335.41146494 193.644655 357.07051056 193.68040137 378.72955406 193.71821922 C392.1029522 193.74130866 405.47634504 193.76024502 418.84975623 193.77388596 C428.00486555 193.78338489 437.15996604 193.79620962 446.31506719 193.81169481 C451.60520938 193.82049542 456.89534058 193.82757692 462.18548965 193.83033562 C467.01997392 193.83287165 471.85442926 193.83989485 476.68890212 193.85060786 C478.4458824 193.85366879 480.20286662 193.85500405 481.95984949 193.85451955 C484.33198743 193.85409508 486.70403347 193.85969595 489.07615852 193.86692142 C489.77216858 193.86532706 490.46817864 193.8637327 491.18527991 193.86209002 C495.8858632 193.8858632 495.8858632 193.8858632 497 195 C497.09983058 196.98757028 497.13080753 198.9786752 497.1328125 200.96875 C497.13410156 202.17917969 497.13539063 203.38960937 497.13671875 204.63671875 C497.13285156 205.91160156 497.12898438 207.18648437 497.125 208.5 C497.12886719 209.77488281 497.13273437 211.04976562 497.13671875 212.36328125 C497.13478516 214.17892578 497.13478516 214.17892578 497.1328125 216.03125 C497.13168457 217.15080078 497.13055664 218.27035156 497.12939453 219.42382812 C497 222 497 222 496 223 C493.98631263 223.0980489 491.96913698 223.12464556 489.95306396 223.12457275 C488.63789291 223.12713577 487.32272186 223.12969879 485.96769714 223.13233948 C484.49636834 223.13026925 483.0250396 223.12814649 481.55371094 223.12597656 C480.01489714 223.12737048 478.47608373 223.12926924 476.93727112 223.13163757 C473.61528973 223.13614389 470.29332073 223.13799086 466.97133636 223.13809967 C461.71907909 223.13923731 456.46689254 223.15205613 451.21466064 223.16766357 C449.88652096 223.17152285 449.88652096 223.17152285 448.53155017 223.1754601 C446.72053014 223.180727 444.90951016 223.18601248 443.09849024 223.19131613 C430.86561688 223.22645884 418.63283032 223.25297827 406.39990234 223.25048828 C398.1558113 223.24890039 389.91196021 223.26492092 381.6679461 223.30119491 C377.3031224 223.31967219 372.93869935 223.32898283 368.57384491 223.31671906 C364.46638297 223.30529116 360.35963814 223.31696463 356.25227165 223.34635353 C354.74503056 223.35300041 353.23772396 223.3511164 351.7305088 223.34005547 C349.67110446 223.32619691 347.61412559 223.34305664 345.55487061 223.36749268 C344.4030064 223.36895924 343.2511422 223.3704258 342.06437302 223.3719368 C338.06536207 224.19156013 336.57335536 225.90948297 334 229 C333.67 229.66 333.34 230.32 333 231 C328.05 231 323.1 231 318 231 C317.34 229.35 316.68 227.7 316 226 C312.72419413 223.81612942 311.79016095 223.74839687 307.99529076 223.74108028 C306.43540336 223.73080709 306.43540336 223.73080709 304.84400308 223.72032636 C303.69781208 223.72294322 302.55162108 223.72556007 301.37069702 223.72825623 C300.15602426 223.72316939 298.9413515 223.71808255 297.68987048 223.71284157 C294.31224695 223.70068672 290.93482572 223.69748582 287.55719423 223.69798481 C283.91709167 223.69635046 280.27702894 223.68322978 276.63694763 223.67144775 C270.32802861 223.65256382 264.01912898 223.64086585 257.710186 223.63390923 C248.58737301 223.62375254 239.4646188 223.60169872 230.34183629 223.57652331 C215.54007766 223.53590756 200.73831343 223.50345227 185.93652344 223.47680664 C185.05026967 223.47520934 184.16401589 223.47361204 183.25090595 223.47196633 C182.36351881 223.47036743 181.47613166 223.46876853 180.561854 223.46712118 C167.97547607 223.44442484 155.38910391 223.41979416 142.80273438 223.39282227 C141.91695026 223.39092612 141.03116615 223.38902997 140.11854009 223.38707637 C125.37063988 223.35534278 110.62275097 223.31959676 95.87486517 223.28178078 C86.77008393 223.25869555 77.66531044 223.23975769 68.56051005 223.22611404 C62.32784298 223.21661366 56.09518887 223.20378819 49.86253379 223.18830519 C46.26146322 223.17950662 42.66040876 223.17242393 39.05932808 223.16966438 C35.16464493 223.16666214 31.27000401 223.15609756 27.37533569 223.14476013 C25.64935703 223.14533933 25.64935703 223.14533933 23.88851011 223.14593023 C22.85380067 223.14168918 21.81909123 223.13744814 20.75302696 223.13307858 C19.8528174 223.13150468 18.95260783 223.12993078 18.02511919 223.12830919 C16 223 16 223 15 222 C14.90016942 220.01242972 14.86919247 218.0213248 14.8671875 216.03125 C14.86589844 214.82082031 14.86460938 213.61039063 14.86328125 212.36328125 C14.86714844 211.08839844 14.87101563 209.81351563 14.875 208.5 C14.87113281 207.22511719 14.86726562 205.95023438 14.86328125 204.63671875 C14.86457031 203.42628906 14.86585937 202.21585938 14.8671875 200.96875 C14.86831543 199.84919922 14.86944336 198.72964844 14.87060547 197.57617188 C15 195 15 195 16 194 C17.45244068 193.8795537 18.91010076 193.82051872 20.3671875 193.7890625 C21.25277344 193.76070312 22.13835938 193.73234375 23.05078125 193.703125 C24.92558664 193.65126316 26.80061611 193.6069266 28.67578125 193.5703125 C30.00802734 193.52390625 30.00802734 193.52390625 31.3671875 193.4765625 C32.18300293 193.45674316 32.99881836 193.43692383 33.83935547 193.41650391 C36.50602263 192.90245485 37.40548758 192.17570748 39 190 C39.58333333 186.5 39.58333333 186.5 39 183 C34.77588189 178.87761769 30.31998664 179.52012804 24.75 179.5625 C23.83347656 179.54251953 22.91695312 179.52253906 21.97265625 179.50195312 C15.83875625 179.50632823 11.05154595 180.36992837 6 184 C4.1189932 186.02386069 4.1189932 186.02386069 3.0625 188.25 C2.38629109 189.50614401 1.70226141 190.75823305 1 192 C0.67 192 0.34 192 0 192 C0 128.64 0 65.28 0 0 Z " fill="#A3A3A3" transform="translate(0,0)"/>
<path d="M0 0 C4.62 0 9.24 0 14 0 C14.99 2.97 14.99 2.97 16 6 C19.25148271 7.08382757 21.61361134 7.12929573 25.0354557 7.13587189 C26.30528474 7.14072963 27.57511379 7.14558738 28.88342249 7.15059233 C30.30058771 7.15097762 31.71775296 7.15127336 33.13491821 7.15148926 C34.63409837 7.15533775 36.13327746 7.15962494 37.63245523 7.16431475 C41.76251715 7.17597555 45.89256802 7.18144378 50.02264309 7.18594956 C54.47255713 7.19189034 58.9224564 7.20355988 63.37236023 7.21458435 C71.08581784 7.23294847 78.79927578 7.24778793 86.5127449 7.26036072 C97.66630067 7.27863274 108.81983534 7.30329735 119.97337441 7.32973462 C138.06948239 7.37254622 156.16559618 7.41165817 174.26171875 7.44775391 C175.88717027 7.45099811 175.88717027 7.45099811 177.5454592 7.45430785 C186.33979577 7.47183245 195.1341327 7.48917817 203.92846966 7.50651073 C211.61865442 7.52167361 219.30883903 7.536906 226.99902344 7.55224609 C228.08194926 7.55440496 229.16487508 7.55656383 230.28061683 7.55878812 C248.31007291 7.59485147 266.33951835 7.63479989 284.36895978 7.67754889 C295.50056526 7.70375264 306.63216744 7.72639994 317.76378904 7.74453247 C325.38409204 7.75716591 333.00438241 7.77327923 340.62467243 7.79218161 C345.02774698 7.80297548 349.43080922 7.81208092 353.83389473 7.81687737 C357.85789856 7.82128595 361.88186531 7.83019908 365.90585153 7.84282058 C367.36808147 7.84658 368.83031696 7.84861874 370.29255171 7.84884077 C372.2671165 7.84937597 374.24167628 7.8565433 376.21622658 7.86412811 C377.31692848 7.86624408 378.41763038 7.86836005 379.55168688 7.87054014 C382 8 382 8 383 9 C383.09983058 10.98757028 383.13080753 12.9786752 383.1328125 14.96875 C383.13410156 16.17917969 383.13539063 17.38960938 383.13671875 18.63671875 C383.13285156 19.91160156 383.12898438 21.18648438 383.125 22.5 C383.12886719 23.77488281 383.13273437 25.04976563 383.13671875 26.36328125 C383.13478516 28.17892578 383.13478516 28.17892578 383.1328125 30.03125 C383.13168457 31.15080078 383.13055664 32.27035156 383.12939453 33.42382812 C383 36 383 36 382 37 C379.45229703 37.09977201 376.93165574 37.13361758 374.38340759 37.12584114 C373.16649717 37.1280213 373.16649717 37.1280213 371.92500269 37.13024551 C369.17125635 37.1339325 366.41756442 37.13040669 363.66381836 37.12698364 C361.68376353 37.1281344 359.70370891 37.12972161 357.72365475 37.13171089 C352.25508354 37.13591049 346.78652965 37.13381069 341.31795835 37.13072467 C335.4310567 37.12847334 329.54415813 37.13194884 323.65725708 37.13470459 C312.78213285 37.13890601 301.90701461 37.13852535 291.03189006 37.13579312 C280.98682545 37.1332817 270.94176287 37.13261893 260.896698 37.13381577 C260.23146541 37.13389215 259.56623282 37.13396854 258.88084166 37.13404724 C256.18072951 37.13435855 253.48061736 37.13467695 250.78050521 37.135007 C225.42977011 37.13806887 200.07903856 37.13528798 174.72830401 37.1299101 C152.18507838 37.12516418 129.6418584 37.12558879 107.09863281 37.13037109 C81.79549987 37.13572088 56.49237007 37.13785176 31.18923664 37.13475883 C28.4939251 37.13443809 25.79861355 37.13412525 23.103302 37.13381577 C22.43960369 37.13373669 21.77590539 37.13365761 21.09209501 37.13357614 C11.05113174 37.13243666 1.01017072 37.13377266 -9.03079224 37.13629532 C-20.44303459 37.13909249 -31.85527005 37.13835682 -43.26751161 37.13301457 C-49.09636327 37.13037643 -54.92520343 37.12937439 -60.75405502 37.13266373 C-66.08082623 37.13562439 -71.4075752 37.13403775 -76.73434436 37.12868617 C-78.67038923 37.127561 -80.60643594 37.12815536 -82.54247963 37.13056196 C-85.15614975 37.13356385 -87.7697417 37.13052367 -90.38340759 37.12584114 C-91.15058054 37.12818231 -91.91775349 37.13052347 -92.70817411 37.13293558 C-97.88584966 37.11415034 -97.88584966 37.11415034 -99 36 C-99.09983058 34.01242972 -99.13080753 32.0213248 -99.1328125 30.03125 C-99.13410156 28.82082031 -99.13539062 27.61039062 -99.13671875 26.36328125 C-99.13285156 25.08839844 -99.12898438 23.81351562 -99.125 22.5 C-99.12886719 21.22511719 -99.13273437 19.95023437 -99.13671875 18.63671875 C-99.13542969 17.42628906 -99.13414063 16.21585937 -99.1328125 14.96875 C-99.13168457 13.84919922 -99.13055664 12.72964844 -99.12939453 11.57617188 C-99 9 -99 9 -98 8 C-95.12508113 7.88004558 -92.27311865 7.82451977 -89.39697266 7.81054688 C-88.04335884 7.79810692 -88.04335884 7.79810692 -86.66239929 7.78541565 C-84.69586599 7.76797284 -82.72931141 7.75281774 -80.7627449 7.73963928 C-77.6533276 7.71867763 -74.54401687 7.69164869 -71.43466187 7.66296387 C-64.83148188 7.60315183 -58.22825263 7.55106748 -51.625 7.5 C-43.98282434 7.44082923 -36.34070086 7.37853625 -28.69861984 7.30812073 C-25.63028368 7.28149919 -22.56194246 7.26071044 -19.49356079 7.2401123 C-17.61631013 7.22351036 -15.73906182 7.20663861 -13.86181641 7.18945312 C-13.0045546 7.18526871 -12.14729279 7.18108429 -11.26405334 7.17677307 C-7.93118225 7.14135724 -5.18333401 7.06111134 -2 6 C-1.34 4.02 -0.68 2.04 0 0 Z " fill="#A6A6A6" transform="translate(114,460)"/>
<path d="M0 0 C36.63 0 73.26 0 111 0 C109.68 1.65 108.36 3.3 107 5 C106.36853849 7.78556069 106.36853849 7.78556069 106.390625 10.73828125 C106.35839844 11.80498047 106.32617188 12.87167969 106.29296875 13.97070312 C106.27878906 15.07349609 106.26460938 16.17628906 106.25 17.3125 C106.20552734 18.99569336 106.20552734 18.99569336 106.16015625 20.71289062 C106.08962583 23.47533207 106.03684507 26.23693774 106 29 C104.72125 29.02578125 103.4425 29.0515625 102.125 29.078125 C100.41663435 29.13444475 98.70830233 29.19179118 97 29.25 C96.16082031 29.26417969 95.32164063 29.27835938 94.45703125 29.29296875 C86.88502095 29.58645752 81.64804054 31.24340143 76.33203125 36.77734375 C72.9250379 42.13119044 71.22761895 48.42534075 69.3503418 54.44311523 C68.6864463 56.56586914 68.00004983 58.6803645 67.31054688 60.79492188 C64.46909433 69.20974035 64.46909433 69.20974035 64 78 C66.39518517 81.16506612 68.20113638 82.1939386 72 83 C70.59018054 90.08166393 68.48391301 96.73118514 66.03515625 103.51367188 C64.54018133 107.81080422 63.54781301 111.38073594 64 116 C65.05893971 118.38442803 65.05893971 118.38442803 67 120 C68.65581223 120.38363363 70.3230833 120.722801 72 121 C70.78816545 128.51337422 68.61521273 135.44095994 66.03271484 142.57763672 C64.55091378 146.79605619 63.28121689 150.47820081 64 155 C65.3073314 157.51780673 65.3073314 157.51780673 68 159 C71.0842439 159.61207163 74.11212312 159.69514593 77.25 159.75 C80.1375 159.8325 83.025 159.915 86 160 C86 166.27 86 172.54 86 179 C84.25332031 179.01417969 82.50664063 179.02835938 80.70703125 179.04296875 C78.40882779 179.08987086 76.11065151 179.13811823 73.8125 179.1875 C72.66201172 179.19330078 71.51152344 179.19910156 70.32617188 179.20507812 C63.45668978 179.13988164 63.45668978 179.13988164 57.76171875 182.42578125 C56.02202282 184.84254785 56.02202282 184.84254785 55 187 C42.2393624 187.9212225 42.2393624 187.9212225 39.25 185.69921875 C38.25 184.0625 38.25 184.0625 37 181 C33.30546644 179.15273322 28.94186111 179.7289422 24.875 179.6875 C23.94945313 179.65849609 23.02390625 179.62949219 22.0703125 179.59960938 C15.87241777 179.5427078 11.10098108 180.31011236 6 184 C4.1189932 186.02386069 4.1189932 186.02386069 3.0625 188.25 C2.38629109 189.50614401 1.70226141 190.75823305 1 192 C0.67 192 0.34 192 0 192 C0 128.64 0 65.28 0 0 Z " fill="#F6F6F6" transform="translate(0,0)"/>
<path d="M0 0 C36.63 0 73.26 0 111 0 C111 63.36 111 126.72 111 192 C109.37976661 189.83968881 107.77291582 187.66748388 106.25 185.4375 C102.61510462 181.49969667 98.62096991 180.18078115 93.42481995 179.60127258 C91.52952797 179.584618 91.52952797 179.584618 89.59594727 179.56762695 C88.892668 179.5574353 88.18938873 179.54724365 87.46479797 179.53674316 C85.16525097 179.50680981 82.86612181 179.49737791 80.56640625 179.48828125 C78.96213925 179.47141989 77.35788535 179.45326769 75.75364685 179.43388367 C71.55010063 179.38653548 67.34660752 179.35662829 63.1428833 179.33044434 C58.84579993 179.30056183 54.54889925 179.25405806 50.25195312 179.20898438 C41.83471037 179.12312401 33.41748608 179.0572403 25 179 C25 172.73 25 166.46 25 160 C33.75 159.75 33.75 159.75 36.48730469 159.70214844 C40.06694295 159.55012983 42.48244705 159.29093213 45.640625 157.515625 C48.1829969 152.81077584 46.60851006 148.2111168 45.24560547 143.25878906 C44.3555588 140.36352838 43.40976057 137.49365001 42.4375 134.625 C41.78651794 132.68097137 41.13920602 130.73570874 40.49609375 128.7890625 C40.20919678 127.94037598 39.9222998 127.09168945 39.62670898 126.21728516 C39 124 39 124 39 121 C40.423125 120.5978125 40.423125 120.5978125 41.875 120.1875 C45.25267273 119.25013412 45.25267273 119.25013412 47 116 C47.37200484 109.13263013 44.70432442 102.48108591 42.4375 96.125 C41.78637504 94.2748367 41.13905803 92.42332758 40.49609375 90.5703125 C40.20919678 89.76352051 39.9222998 88.95672852 39.62670898 88.12548828 C39 86 39 86 39 83 C40.134375 82.54625 41.26875 82.0925 42.4375 81.625 C46.04721692 80.42904194 46.04721692 80.42904194 47 78 C46.70934883 70.19394007 44.35924086 63.12372992 41.87182617 55.77832031 C41.18573694 53.74477436 40.52087797 51.70508938 39.85742188 49.6640625 C39.42052671 48.35374725 38.98241749 47.04383605 38.54296875 45.734375 C38.15133545 44.56100586 37.75970215 43.38763672 37.35620117 42.17871094 C34.92077745 36.47048109 31.80156781 33.31415626 26.26953125 30.76367188 C22.23447238 29.40591971 18.22644165 29.32141453 14 29.25 C13.12988281 29.22035156 12.25976562 29.19070312 11.36328125 29.16015625 C9.24266784 29.09024592 7.12133437 29.04276884 5 29 C4.98598145 27.94872925 4.98598145 27.94872925 4.97167969 26.8762207 C4.91785456 23.68760975 4.83423064 20.50044667 4.75 17.3125 C4.73582031 16.20970703 4.72164063 15.10691406 4.70703125 13.97070312 C4.67480469 12.90400391 4.64257812 11.83730469 4.609375 10.73828125 C4.58842773 9.75899658 4.56748047 8.77971191 4.54589844 7.77075195 C4.08773154 4.32047241 4.08773154 4.32047241 0 0 Z " fill="#F6F6F6" transform="translate(401,0)"/>
<path d="M0 0 C45.21 0 90.42 0 137 0 C136.67 0.66 136.34 1.32 136 2 C135.34 2 134.68 2 134 2 C133.67 10.91 133.34 19.82 133 29 C123.375 29.3125 123.375 29.3125 120.37646484 29.38793945 C113.71779881 29.66454262 109.5309556 30.89515594 104.30859375 35.23828125 C101.70283883 38.35548722 100.34789815 41.39515294 99.0625 45.1875 C98.81870605 45.87440918 98.57491211 46.56131836 98.32373047 47.26904297 C97.80625347 48.73825495 97.29602439 50.21003665 96.79248047 51.68408203 C95.97408324 54.07573825 95.13052918 56.4576029 94.28515625 58.83984375 C93.73016485 60.43433775 93.17674156 62.02937855 92.625 63.625 C92.36211182 64.37031982 92.09922363 65.11563965 91.82836914 65.88354492 C90.03772342 71.19412977 89.17550434 75.52651301 91 81 C94.51190809 82.22969878 94.51190809 82.22969878 98 83 C97.31093043 90.16632352 94.84117434 96.54356773 92.3515625 103.26171875 C90.44982998 108.66295086 89.42797037 112.41709102 91 118 C93.5654594 120.5654594 95.47686668 120.54046087 99 121 C97.61431494 125.83774256 96.15221548 130.62617931 94.4296875 135.35546875 C94.15398926 136.12971191 93.87829102 136.90395508 93.59423828 137.70166016 C93.04250306 139.24454032 92.47632789 140.78235287 91.89404297 142.31396484 C89.89446207 147.97425951 89.99119065 152.08204283 91 158 C93.65918166 158.88639389 95.48064641 159.17989025 98.23046875 159.31640625 C98.95387451 159.35451416 99.67728027 159.39262207 100.42260742 159.43188477 C101.33502197 159.47498779 102.24743652 159.51809082 103.1875 159.5625 C106.095625 159.706875 109.00375 159.85125 112 160 C112 166.27 112 172.54 112 179 C83.29 179 54.58 179 25 179 C25 172.73 25 166.46 25 160 C33.75 159.6875 33.75 159.6875 36.48730469 159.61206055 C39.76149842 159.46167011 42.50170174 159.18950434 45.578125 158.01953125 C48.01659857 154.55609489 47.59132022 151.00175961 47 147 C45.90667891 142.94606581 44.48561897 139.04984472 43 135.125 C42.24608171 133.08738299 41.4958989 131.04837877 40.75 129.0078125 C40.41484375 128.11723145 40.0796875 127.22665039 39.734375 126.30908203 C39 124 39 124 39 121 C40.134375 120.71125 41.26875 120.4225 42.4375 120.125 C43.613125 119.75375 44.78875 119.3825 46 119 C49.13056512 112.73886976 46.17506166 105.57474186 44.15625 99.41015625 C43.7746875 98.28480469 43.393125 97.15945312 43 96 C42.6184375 94.84371094 42.236875 93.68742187 41.84375 92.49609375 C40.90632509 89.66038339 39.95820457 86.82874221 39 84 C41.07471289 82.95828491 43.15062638 81.92887087 45.25 80.9375 C47.58675339 78.35038017 47.41807883 76.26879689 47.34765625 72.88208008 C46.68109302 67.35625216 44.84563292 62.13574412 43.05712891 56.88818359 C42.37626946 54.87874659 41.72816755 52.86067549 41.08203125 50.83984375 C38.26758958 42.27752046 35.72212982 35.74937931 27.74609375 31.10546875 C23.12505002 29.74180308 18.85675735 29.44010381 14.0625 29.3125 C12.75055664 29.26125977 12.75055664 29.26125977 11.41210938 29.20898438 C9.27516746 29.12724343 7.13760782 29.0619287 5 29 C4.9906543 28.26362305 4.98130859 27.52724609 4.97167969 26.76855469 C4.91795845 23.42835782 4.83431378 20.08955881 4.75 16.75 C4.73582031 15.59113281 4.72164063 14.43226562 4.70703125 13.23828125 C4.67480469 12.12324219 4.64257812 11.00820312 4.609375 9.859375 C4.58842773 8.83295898 4.56748047 7.80654297 4.54589844 6.74902344 C4.14666513 3.40554936 4.14666513 3.40554936 0 0 Z " fill="#F5F5F5" transform="translate(116,0)"/>
<path d="M0 0 C44.88 0 89.76 0 136 0 C135.01 1.32 134.02 2.64 133 4 C132.49888483 6.79763443 132.49888483 6.79763443 132.48828125 9.859375 C132.45283203 10.97441406 132.41738281 12.08945313 132.38085938 13.23828125 C132.34702148 14.97658203 132.34702148 14.97658203 132.3125 16.75 C132.27833984 17.92433594 132.24417969 19.09867188 132.20898438 20.30859375 C132.12654827 23.20563389 132.05738189 26.10237298 132 29 C131.43603516 29.00410889 130.87207031 29.00821777 130.29101562 29.01245117 C127.69300297 29.04569765 125.09724077 29.1163677 122.5 29.1875 C121.613125 29.19330078 120.72625 29.19910156 119.8125 29.20507812 C113.42833296 29.41631895 108.86006505 30.73806589 104 35 C100.64791933 38.65786087 99.00998027 42.05235777 97.421875 46.734375 C97.20557434 47.37183655 96.98927368 48.0092981 96.76641846 48.66607666 C96.31428368 50.00902485 95.86748309 51.35377963 95.42578125 52.70019531 C94.75454656 54.73620921 94.05822835 56.76238778 93.359375 58.7890625 C91.04733476 65.64585882 89.19424782 71.72498752 90 79 C91.63450124 81.05945016 91.63450124 81.05945016 94 82 C95.33430586 82.66471806 96.66778805 83.33109526 98 84 C97.04247477 87.04192165 96.08383363 90.08349054 95.125 93.125 C94.85558594 93.9809375 94.58617187 94.836875 94.30859375 95.71875 C94.04433594 96.55664062 93.78007812 97.39453125 93.5078125 98.2578125 C93.24991943 99.07693115 92.99202637 99.8960498 92.72631836 100.73999023 C92.1216403 102.62150446 91.47776472 104.49036581 90.82421875 106.35546875 C89.63130094 110.18298228 89.67201259 112.9985536 90 117 C91.62634655 119.65351279 92.66796815 119.91506162 95.6875 120.6875 C96.450625 120.790625 97.21375 120.89375 98 121 C97.38692522 124.39051779 96.54240401 127.52723882 95.37109375 130.765625 C95.05849609 131.65636719 94.74589844 132.54710937 94.42382812 133.46484375 C93.77075075 135.30897906 93.10939391 137.15020496 92.43945312 138.98828125 C90.52750332 144.49057985 88.71446209 150.14795841 90 156 C91.56229889 158.1535134 92.46667098 158.88938685 95.0847168 159.43237305 C96.25514526 159.47164917 96.25514526 159.47164917 97.44921875 159.51171875 C98.5952356 159.56138794 98.5952356 159.56138794 99.7644043 159.61206055 C100.72902588 159.63695557 101.69364746 159.66185059 102.6875 159.6875 C107.2971875 159.8421875 107.2971875 159.8421875 112 160 C112 166.27 112 172.54 112 179 C83.29 179 54.58 179 25 179 C25 172.73 25 166.46 25 160 C33.1875 159.8125 33.1875 159.8125 35.73901367 159.79223633 C39.71499971 159.62729884 41.70873406 159.19186276 45.11328125 156.94921875 C47.18027033 153.71821097 47.39580168 152.08560926 46.65283203 148.35058594 C45.31241118 143.52426882 43.65646364 138.82765702 41.9375 134.125 C41.19399026 132.06604995 40.45297178 130.006198 39.71484375 127.9453125 C39.38605225 127.04312988 39.05726074 126.14094727 38.71850586 125.21142578 C38 123 38 123 38 121 C39.11375 120.731875 40.2275 120.46375 41.375 120.1875 C45.21840951 119.34190981 45.21840951 119.34190981 47 116 C46.71991402 109.47184207 44.72485352 103.88644271 42.4375 97.8125 C41.78296661 96.07177423 41.13557012 94.32834455 40.49609375 92.58203125 C40.20919678 91.82124268 39.9222998 91.0604541 39.62670898 90.27661133 C38.93475616 87.76299229 38.8903825 85.59504411 39 83 C39.94875 82.54625 40.8975 82.0925 41.875 81.625 C45.00313679 80.19761746 45.00313679 80.19761746 47 78 C46.85391259 70.3060631 44.36331212 63.39236403 41.81689453 56.20556641 C41.12279337 54.2437632 40.44517637 52.27681991 39.76953125 50.30859375 C36.14474619 39.90082114 33.91746091 34.95873046 24 30 C22.5534758 29.84932786 21.1012066 29.75138964 19.6484375 29.68359375 C18.79765625 29.64169922 17.946875 29.59980469 17.0703125 29.55664062 C16.18085938 29.51732422 15.29140625 29.47800781 14.375 29.4375 C13.02921875 29.37272461 13.02921875 29.37272461 11.65625 29.30664062 C9.43765717 29.20043139 7.2189512 29.09838806 5 29 C4.97494385 28.32420898 4.9498877 27.64841797 4.92407227 26.95214844 C4.80789258 23.8845832 4.68526563 20.81730842 4.5625 17.75 C4.52318359 16.68652344 4.48386719 15.62304688 4.44335938 14.52734375 C4.38051758 12.99013672 4.38051758 12.99013672 4.31640625 11.421875 C4.27974854 10.47924805 4.24309082 9.53662109 4.20532227 8.56542969 C4.01690217 6.21118675 3.85360979 4.20346805 3 2 C2.01 1.67 1.02 1.34 0 1 C0 0.67 0 0.34 0 0 Z " fill="#F6F6F6" transform="translate(259,0)"/>
<path d="M0 0 C4.23947608 3.60559943 6.68368701 7.54866833 9.25 12.375 C10.04251959 13.82257473 10.83683084 15.26916982 11.6328125 16.71484375 C12.22884277 17.80128174 12.22884277 17.80128174 12.83691406 18.90966797 C14.53384221 21.95943682 16.31807433 24.95194302 18.125 27.9375 C18.48335938 28.53087158 18.84171875 29.12424316 19.2109375 29.7355957 C20.00956111 31.0567984 20.80875052 32.3776592 21.60839844 33.69824219 C29.80771876 47.26020569 37.96385711 60.84983175 45.98828125 74.51611328 C48.69728321 79.1259205 51.42920574 83.71957723 54.21058655 88.28601074 C55.69914453 90.73219183 57.17882298 93.1836907 58.6579895 95.63555908 C59.37809185 96.82380946 60.10235219 98.00955133 60.83102417 99.19256592 C61.85120157 100.84968558 62.85557219 102.51650424 63.859375 104.18359375 C64.73287598 105.61529907 64.73287598 105.61529907 65.62402344 107.07592773 C67.2685018 110.57059015 68.00987885 113.12337496 68 117 C66.34958368 119.58895839 65.61646269 120.57004082 63 122 C58.76814689 122.75472411 54.57567615 122.67222713 50.28686523 122.63110352 C48.99533539 122.63825882 47.70380554 122.64541412 46.37313843 122.65278625 C42.83789241 122.67128122 39.30340174 122.65837543 35.76818728 122.63869596 C32.06648317 122.62229539 28.36482636 122.63112413 24.6631012 122.63621521 C18.44821114 122.64073406 12.23362228 122.62487816 6.01879883 122.59692383 C-1.16536082 122.56485849 -8.34897775 122.56489361 -15.533176 122.5821386 C-22.44717878 122.59800324 -29.36098266 122.59127154 -36.27497673 122.57420158 C-39.21632116 122.5673309 -42.15750616 122.56836357 -45.09884834 122.57574654 C-49.20495885 122.58483162 -53.31023097 122.56087508 -57.41625977 122.53344727 C-58.63767166 122.53997314 -59.85908356 122.54649902 -61.11750793 122.55322266 C-62.79354095 122.53413597 -62.79354095 122.53413597 -64.50343323 122.5146637 C-65.95934293 122.51045331 -65.95934293 122.51045331 -67.44466496 122.50615788 C-70.74550308 121.85233159 -71.94206178 120.61214045 -74 118 C-74.95096078 112.66114147 -72.73952861 109.00645628 -70.0625 104.5625 C-69.70865234 103.95212891 -69.35480469 103.34175781 -68.99023438 102.71289062 C-67.67852554 100.46392659 -66.34091283 98.23168919 -65 96 C-64.00589111 94.3439978 -64.00589111 94.3439978 -62.99169922 92.65454102 C-61.85268989 90.75720792 -60.7135785 88.85993688 -59.57398987 86.96295166 C-56.88886117 82.49041243 -54.21969525 78.00871678 -51.5625 73.51953125 C-51.19414536 72.89731689 -50.82579071 72.27510254 -50.4462738 71.6340332 C-49.68828438 70.35355754 -48.93031444 69.07307034 -48.17236328 67.79257202 C-41.16856382 55.96345081 -34.1025309 44.17560626 -26.9352417 32.4447937 C-21.90827602 24.21565176 -16.99080859 15.93557782 -12.30859375 7.50463867 C-9.08318433 1.79297617 -6.83589144 -0.9570248 0 0 Z " fill="#F4E067" transform="translate(259,296)"/>
<path d="M0 0 C8.54591418 6.02673522 13.28207224 16.09776941 18.375 25 C19.60574637 27.13080039 20.83753327 29.26100008 22.0703125 31.390625 C22.67907227 32.44314453 23.28783203 33.49566406 23.91503906 34.58007812 C26.48514005 38.9952709 29.11152245 43.37542712 31.75 47.75 C36.31340409 55.3246197 40.83138686 62.92454998 45.32250977 70.54223633 C48.72294776 76.30723396 52.13579125 82.06467013 55.55859375 87.81640625 C56.41463282 89.25553346 57.27067123 90.69466107 58.12670898 92.13378906 C59.39483767 94.26555166 60.66339221 96.39705441 61.93338013 98.52770996 C63.86482868 101.76820791 65.79208308 105.01096219 67.70581055 108.26196289 C68.90457686 110.29633594 70.11191628 112.3257365 71.33520508 114.34545898 C75.17038495 120.84936163 75.95728832 126.0884866 74.6875 133.625 C71.99165725 140.84985856 67.66347514 145.42705831 60.6875 148.625 C57.57523068 149.66242311 55.40618943 149.75828222 52.14155579 149.77217102 C50.41098183 149.78290398 50.41098183 149.78290398 48.64544678 149.79385376 C47.37839905 149.79654266 46.11135132 149.79923157 44.8059082 149.80200195 C43.45885544 149.80826812 42.1118044 149.81491505 40.76475525 149.82191467 C36.33927613 149.84294275 31.91379672 149.85331722 27.48828125 149.86328125 C25.96327382 149.86732955 24.43826657 149.87144649 22.91325951 149.87563133 C15.74676799 149.8946818 8.58028675 149.90891203 1.41377479 149.9172433 C-6.85020016 149.92700968 -15.11390684 149.95331392 -23.37778729 149.99374419 C-29.77027888 150.023942 -36.16269373 150.03871572 -42.55525523 150.04202431 C-46.3707306 150.04437102 -50.18591933 150.05328131 -54.00131798 150.07848549 C-57.59405769 150.10183514 -61.18632345 150.10597218 -64.77911949 150.09572411 C-66.71705571 150.09499584 -68.65496823 150.11403947 -70.59280396 150.13378906 C-78.71455102 150.08549723 -84.31194638 149.19343808 -90.5546875 143.625 C-91.09351563 142.965 -91.63234375 142.305 -92.1875 141.625 C-92.74179688 140.965 -93.29609375 140.305 -93.8671875 139.625 C-98.18862238 133.64506849 -98.20082997 127.839099 -97.3125 120.625 C-95.87680491 116.60763202 -93.83091209 113.1636042 -91.5625 109.5625 C-90.97339844 108.57644775 -90.38429687 107.59039551 -89.77734375 106.57446289 C-87.97988108 103.57588524 -86.14731971 100.60081689 -84.3125 97.625 C-83.28281283 95.9084315 -82.25657507 94.1897875 -81.234375 92.46875 C-79.28394357 89.18850845 -77.32048379 85.91680246 -75.34375 82.65234375 C-72.12755373 77.33284725 -68.96802661 71.98064158 -65.8125 66.625 C-61.30525145 58.98308338 -56.78239629 51.35122106 -52.19458008 43.75732422 C-49.42685794 39.17194642 -46.68994552 34.57062168 -43.99098206 29.94451904 C-42.3987719 27.21929914 -40.79631305 24.5001712 -39.19296265 21.78149414 C-38.40631017 20.44190492 -37.62415466 19.09966333 -36.84683228 17.75463867 C-28.85013262 3.9270437 -17.35717466 -9.39516793 0 0 Z M-19.3125 17.625 C-20.70071584 19.8618822 -21.96307914 22.05403825 -23.1875 24.375 C-27.01945276 31.3972303 -31.05298671 38.27680393 -35.1875 45.125 C-36.48993786 47.28494251 -37.79200783 49.44510689 -39.09375 51.60546875 C-39.43136353 52.1657225 -39.76897705 52.72597626 -40.11682129 53.3032074 C-44.34386477 60.32608628 -48.51152 67.38419247 -52.6875 74.4375 C-57.48510589 82.54039987 -62.29934749 90.63182712 -67.1953125 98.67578125 C-67.78304947 99.64143761 -67.78304947 99.64143761 -68.38265991 100.62660217 C-70.24072747 103.67674627 -72.10290922 106.72430211 -73.97021484 109.76879883 C-74.62973145 110.84798584 -75.28924805 111.92717285 -75.96875 113.0390625 C-76.83209961 114.44599365 -76.83209961 114.44599365 -77.71289062 115.88134766 C-81.90276082 122.79121283 -81.90276082 122.79121283 -82.3125 130.625 C-80.2588577 133.24420548 -79.060054 134.47692535 -75.75716496 135.13115788 C-74.30125525 135.13536826 -74.30125525 135.13536826 -72.81593323 135.1396637 C-71.13990021 135.15875038 -71.13990021 135.15875038 -69.43000793 135.17822266 C-68.20859604 135.17169678 -66.98718414 135.1651709 -65.72875977 135.15844727 C-64.43898224 135.16706284 -63.14920471 135.17567841 -61.82034302 135.18455505 C-58.28509856 135.20705787 -54.7503016 135.2041074 -51.21501279 135.19523358 C-48.2626825 135.19012322 -45.31043628 135.19741667 -42.35811466 135.20470566 C-35.39255834 135.22170771 -28.42722107 135.21813617 -21.46166992 135.20141602 C-14.27806243 135.18449529 -7.09506261 135.20032726 0.08847851 135.2326389 C6.25848333 135.25933918 12.42829904 135.26660965 18.59835583 135.25812382 C22.28239207 135.25319563 25.96606271 135.25540366 29.65005302 135.27591133 C33.75854266 135.29768709 37.86588107 135.27886525 41.97436523 135.25610352 C43.80344673 135.27364182 43.80344673 135.27364182 45.66947937 135.29153442 C52.35925027 135.41458314 52.35925027 135.41458314 57.98149109 132.30078125 C59.99462414 129.66995075 59.99462414 129.66995075 59.69677734 126.18139648 C58.68113462 122.60257029 57.45237953 119.90459138 55.5390625 116.72265625 C54.87261719 115.60068848 54.20617187 114.4787207 53.51953125 113.32275391 C52.78403439 112.1108932 52.04835219 110.89914497 51.3125 109.6875 C50.55227141 108.41651853 49.79317933 107.14485667 49.03515625 105.87255859 C47.42931373 103.18087497 45.8171209 100.49314527 44.20019531 97.80810547 C41.66411735 93.59279943 39.15358198 89.36265083 36.6484375 85.12890625 C35.81171013 83.71539925 34.97495899 82.30190631 34.13818359 80.88842773 C33.72977234 80.19852753 33.32136108 79.50862732 32.90057373 78.79782104 C28.00678123 70.53648374 23.09036185 62.28887771 18.14453125 54.05859375 C15.2278784 49.20466177 12.32819166 44.3412217 9.44921875 39.46484375 C9.11044708 38.89125122 8.77167542 38.31765869 8.42263794 37.72668457 C7.05764669 35.41484287 5.69312588 33.10272639 4.33081055 30.78930664 C3.30930364 29.05525386 2.28553599 27.32253348 1.26171875 25.58984375 C0.66963623 24.5855835 0.07755371 23.58132324 -0.5324707 22.54663086 C-3.59829784 16.76140927 -3.59829784 16.76140927 -8.3125 12.625 C-13.98924475 11.8681007 -15.63728592 13.43604632 -19.3125 17.625 Z " fill="#030202" transform="translate(267.3125,283.375)"/>
<path d="M0 0 C0.33 0 0.66 0 1 0 C1 79.86 1 159.72 1 242 C-0.62759408 239.82987456 -2.2460364 237.65215544 -3.8125 235.4375 C-9.71982496 228.85505218 -14.7534102 229.77054915 -24 229 C-24 158.38 -24 87.76 -24 15 C-20.04 14.34 -16.08 13.68 -12 13 C-8.53062486 11.51963676 -8.53062486 11.51963676 -6 10 C-5.34 10 -4.68 10 -4 10 C-2.26337666 6.77484237 -1.1094072 3.48670834 0 0 Z " fill="#F6F6F6" transform="translate(511,224)"/>
<path d="M0 0 C0.99 1.485 0.99 1.485 2 3 C2.53625 3.680625 3.0725 4.36125 3.625 5.0625 C5 7 5 7 5 9 C6.0828125 9.433125 6.0828125 9.433125 7.1875 9.875 C8.87657795 10.55063118 10.55112139 11.26768753 12.1875 12.0625 C16.09737113 13.48050958 16.09737113 13.48050958 25 14 C25 84.62 25 155.24 25 228 C21.04 228.33 17.08 228.66 13 229 C6.68942154 231.76087808 3.73042763 235.40435855 0 241 C0 161.47 0 81.94 0 0 Z " fill="#F6F6F6" transform="translate(0,225)"/>
<path d="M0 0 C0.02687279 1.81242052 0.04633715 3.62495233 0.0625 5.4375 C0.07410156 6.44683594 0.08570313 7.45617187 0.09765625 8.49609375 C0 11 0 11 -1 12 C-3.54770297 12.09977201 -6.06834426 12.13361758 -8.61659241 12.12584114 C-9.83350283 12.1280213 -9.83350283 12.1280213 -11.07499731 12.13024551 C-13.82874365 12.1339325 -16.58243558 12.13040669 -19.33618164 12.12698364 C-21.31623647 12.1281344 -23.29629109 12.12972161 -25.27634525 12.13171089 C-30.74491646 12.13591049 -36.21347035 12.13381069 -41.68204165 12.13072467 C-47.5689433 12.12847334 -53.45584187 12.13194884 -59.34274292 12.13470459 C-70.21786715 12.13890601 -81.09298539 12.13852535 -91.96810994 12.13579312 C-102.01317455 12.1332817 -112.05823713 12.13261893 -122.103302 12.13381577 C-122.76853459 12.13389215 -123.43376718 12.13396854 -124.11915834 12.13404724 C-126.81927049 12.13435855 -129.51938264 12.13467695 -132.21949479 12.135007 C-157.57022989 12.13806887 -182.92096144 12.13528798 -208.27169599 12.1299101 C-230.81492162 12.12516418 -253.3581416 12.12558879 -275.90136719 12.13037109 C-301.20450013 12.13572088 -326.50762993 12.13785176 -351.81076336 12.13475883 C-354.5060749 12.13443809 -357.20138645 12.13412525 -359.896698 12.13381577 C-360.56039631 12.13373669 -361.22409461 12.13365761 -361.90790499 12.13357614 C-371.94886826 12.13243666 -381.98982928 12.13377266 -392.03079224 12.13629532 C-403.44303459 12.13909249 -414.85527005 12.13835682 -426.26751161 12.13301457 C-432.09636327 12.13037643 -437.92520343 12.12937439 -443.75405502 12.13266373 C-449.08082623 12.13562439 -454.4075752 12.13403775 -459.73434436 12.12868617 C-461.67038923 12.127561 -463.60643594 12.12815536 -465.54247963 12.13056196 C-468.15614975 12.13356385 -470.7697417 12.13052367 -473.38340759 12.12584114 C-474.15058054 12.12818231 -474.91775349 12.13052347 -475.70817411 12.13293558 C-480.88584966 12.11415034 -480.88584966 12.11415034 -482 11 C-482.07205511 9.31391034 -482.08386068 7.62499341 -482.0625 5.9375 C-482.05347656 5.01839844 -482.04445313 4.09929687 -482.03515625 3.15234375 C-482.02355469 2.44207031 -482.01195312 1.73179687 -482 1 C-436.15705873 0.90465686 -390.31411745 0.80931619 -344.47117615 0.71398926 C-343.4542576 0.71187465 -343.4542576 0.71187465 -342.41679524 0.70971733 C-327.6849946 0.67908366 -312.95319396 0.64845046 -298.22139332 0.61781773 C-290.99744906 0.60279654 -283.7735048 0.58777525 -276.54956055 0.57275391 C-275.83067197 0.57125906 -275.11178339 0.56976422 -274.37111032 0.56822408 C-251.04872974 0.51972793 -227.72634919 0.47122504 -204.40396864 0.42271865 C-180.44726267 0.37289302 -156.4905567 0.32307417 -132.5338507 0.2732639 C-129.15404131 0.26623667 -125.77423192 0.25920936 -122.39442253 0.25218201 C-121.72919457 0.25079886 -121.06396661 0.24941571 -120.37858023 0.24799064 C-110.31404313 0.22706414 -100.24950603 0.20613164 -90.18496895 0.18519592 C-78.74525658 0.16139969 -67.3055442 0.13761033 -55.8658318 0.11383021 C-50.02281407 0.1016839 -44.17979635 0.08953413 -38.33677864 0.07737541 C-32.99702268 0.066264 -27.65726671 0.05516201 -22.31751072 0.0440678 C-20.37672513 0.04003379 -18.43593955 0.03599619 -16.49515397 0.03195482 C-13.8751037 0.0264995 -11.2550534 0.02105673 -8.63500309 0.01561737 C-7.86593995 0.01401303 -7.0968768 0.01240868 -6.30450872 0.01075572 C-1.1141458 0 -1.1141458 0 0 0 Z " fill="#808080" transform="translate(497,485)"/>
<path d="M0 0 C159.06 0 318.12 0 482 0 C482 2.97 482 5.94 482 9 C481 10 481 10 478.43899155 10.12469864 C477.28863544 10.1246571 476.13827934 10.12461555 474.95306396 10.12457275 C473.63789291 10.12713577 472.32272186 10.12969879 470.96769714 10.13233948 C469.49636834 10.13026925 468.0250396 10.12814649 466.55371094 10.12597656 C465.01489714 10.12737048 463.47608373 10.12926924 461.93727112 10.13163757 C458.61528973 10.13614389 455.29332073 10.13799086 451.97133636 10.13809967 C446.71907909 10.13923731 441.46689254 10.15205613 436.21466064 10.16766357 C434.88652096 10.17152285 434.88652096 10.17152285 433.53155017 10.1754601 C431.72053014 10.180727 429.90951016 10.18601248 428.09849024 10.19131613 C415.86561688 10.22645884 403.63283032 10.25297827 391.39990234 10.25048828 C383.1558113 10.24890039 374.91196021 10.26492092 366.6679461 10.30119491 C362.3031224 10.31967219 357.93869935 10.32898283 353.57384491 10.31671906 C349.46638297 10.30529116 345.35963814 10.31696463 341.25227165 10.34635353 C339.74503056 10.35300041 338.23772396 10.3511164 336.7305088 10.34005547 C334.67110446 10.32619691 332.61412559 10.34305664 330.55487061 10.36749268 C329.4030064 10.36895924 328.2511422 10.3704258 327.06437302 10.3719368 C323.06536207 11.19156013 321.57335536 12.90948297 319 16 C318.67 16.66 318.34 17.32 318 18 C313.05 18 308.1 18 303 18 C302.34 16.35 301.68 14.7 301 13 C297.72419413 10.81612942 296.79016095 10.74839687 292.99529076 10.74108028 C291.43540336 10.73080709 291.43540336 10.73080709 289.84400308 10.72032636 C288.69781208 10.72294322 287.55162108 10.72556007 286.37069702 10.72825623 C285.15602426 10.72316939 283.9413515 10.71808255 282.68987048 10.71284157 C279.31224695 10.70068672 275.93482572 10.69748582 272.55719423 10.69798481 C268.91709167 10.69635046 265.27702894 10.68322978 261.63694763 10.67144775 C255.32802861 10.65256382 249.01912898 10.64086585 242.710186 10.63390923 C233.58737301 10.62375254 224.4646188 10.60169872 215.34183629 10.57652331 C200.54007766 10.53590756 185.73831343 10.50345227 170.93652344 10.47680664 C170.05026967 10.47520934 169.16401589 10.47361204 168.25090595 10.47196633 C167.36351881 10.47036743 166.47613166 10.46876853 165.561854 10.46712118 C152.97547607 10.44442484 140.38910391 10.41979416 127.80273438 10.39282227 C126.91695026 10.39092612 126.03116615 10.38902997 125.11854009 10.38707637 C110.37063988 10.35534278 95.62275097 10.31959676 80.87486517 10.28178078 C71.77008393 10.25869555 62.66531044 10.23975769 53.56051005 10.22611404 C47.32784298 10.21661366 41.09518887 10.20378819 34.86253379 10.18830519 C31.26146322 10.17950662 27.66040876 10.17242393 24.05932808 10.16966438 C20.16464493 10.16666214 16.27000401 10.15609756 12.37533569 10.14476013 C10.64935703 10.14533933 10.64935703 10.14533933 8.88851011 10.14593023 C7.85380067 10.14168918 6.81909123 10.13744814 5.75302696 10.13307858 C4.8528174 10.13150468 3.95260783 10.12993078 3.02511919 10.12830919 C1 10 1 10 0 9 C0 6.03 0 3.06 0 0 Z " fill="#808080" transform="translate(15,213)"/>
<path d="M0 0 C0.33 0 0.66 0 1 0 C1.309375 1.134375 1.61875 2.26875 1.9375 3.4375 C2.62924531 6.78775099 2.62924531 6.78775099 4 8 C5.68709347 8.12299166 7.37920903 8.17785258 9.07055664 8.20532227 C10.15160172 8.22526749 11.23264679 8.24521271 12.34645081 8.26576233 C14.110485 8.29083107 14.110485 8.29083107 15.91015625 8.31640625 C17.70591347 8.3475779 17.70591347 8.3475779 19.53794861 8.37937927 C23.37940487 8.44500279 27.22093201 8.50381903 31.0625 8.5625 C33.65951267 8.60567305 36.25651806 8.64928693 38.85351562 8.69335938 C45.2356036 8.8006972 51.61776318 8.90192818 58 9 C58 14.28 58 19.56 58 25 C57.67 25 57.34 25 57 25 C57 23.35 57 21.7 57 20 C15.42 20 -26.16 20 -69 20 C-69 21.65 -69 23.3 -69 25 C-69.33 25 -69.66 25 -70 25 C-70 19.72 -70 14.44 -70 9 C-67.70615356 8.97812622 -67.70615356 8.97812622 -65.3659668 8.95581055 C-59.70215249 8.8979184 -54.03873956 8.8206848 -48.37524414 8.73754883 C-45.92218531 8.70425674 -43.46904909 8.6762383 -41.01586914 8.65356445 C-37.49331622 8.62009771 -33.97147535 8.56778485 -30.44921875 8.51171875 C-29.34913986 8.50532883 -28.24906097 8.4989389 -27.11564636 8.49235535 C-26.09481461 8.47256119 -25.07398285 8.45276703 -24.0222168 8.43237305 C-23.12286911 8.42126999 -22.22352142 8.41016693 -21.29692078 8.39872742 C-18.5314858 7.91866961 -17.66983575 7.22064545 -16 5 C-15.67 4.01 -15.34 3.02 -15 2 C-10.05 2 -5.1 2 0 2 C0 1.34 0 0.68 0 0 Z " fill="#464646" transform="translate(333,229)"/>
<path d="M0 0 C3.5625 0.4375 3.5625 0.4375 6 2.0625 C8.10629474 5.264068 8.04968174 6.6139933 7.5625 10.4375 C6.01216701 13.71236069 4.09148395 16.71133149 2.125 19.75 C1.60873047 20.57306641 1.09246094 21.39613281 0.56054688 22.24414062 C-3.18814523 28.18814523 -3.18814523 28.18814523 -4.4375 29.4375 C-3.62925781 29.45167969 -2.82101562 29.46585937 -1.98828125 29.48046875 C6.67327216 29.86705195 6.67327216 29.86705195 10.875 32.5625 C12.64818103 35.58347508 12.84933761 36.91474107 12.25561523 40.30566406 C10.71083499 45.05699238 7.68062613 49.1184127 4.9375 53.25 C4.33292969 54.18392578 3.72835938 55.11785156 3.10546875 56.08007812 C1.28134097 58.88238956 -0.57057289 61.66354198 -2.4375 64.4375 C-3.07010742 65.38028809 -3.70271484 66.32307617 -4.35449219 67.29443359 C-4.96711914 68.1911377 -5.57974609 69.0878418 -6.2109375 70.01171875 C-6.75927246 70.81569092 -7.30760742 71.61966309 -7.87255859 72.44799805 C-9.4375 74.4375 -9.4375 74.4375 -12.4375 76.4375 C-16.31351747 76.35503154 -17.96858028 75.85832539 -20.875 73.25 C-22.9292267 69.55239194 -22.59218707 68.50661722 -21.4375 64.4375 C-19.60635624 61.01943865 -17.50741159 57.79889153 -15.375 54.5625 C-14.80716797 53.68335938 -14.23933594 52.80421875 -13.65429688 51.8984375 C-12.25757259 49.73879658 -10.85186845 47.58560985 -9.4375 45.4375 C-10.32953125 45.49550781 -11.2215625 45.55351562 -12.140625 45.61328125 C-13.31109375 45.65839844 -14.4815625 45.70351563 -15.6875 45.75 C-16.84765625 45.80800781 -18.0078125 45.86601562 -19.203125 45.92578125 C-22.4375 45.4375 -22.4375 45.4375 -24.859375 43.29296875 C-26.77760039 39.82212034 -27.1232137 38.35038378 -26.4375 34.4375 C-25.04496103 31.59059846 -23.30387612 29.03814749 -21.5 26.4375 C-20.49038975 24.93522883 -19.48128315 23.43261907 -18.47265625 21.9296875 C-17.9636377 21.18041992 -17.45461914 20.43115234 -16.93017578 19.65917969 C-14.69780735 16.33655085 -12.57087305 12.94917894 -10.4375 9.5625 C-4.78720873 0.60928111 -4.78720873 0.60928111 0 0 Z " fill="#070502" transform="translate(260.4375,331.5625)"/>
<path d="M0 0 C0.53625 0.350625 1.0725 0.70125 1.625 1.0625 C4.7634242 2.30135166 6.76212444 1.77427459 10 1 C10.66 0.67 11.32 0.34 12 0 C12 0.66 12 1.32 12 2 C36.42 1.67 60.84 1.34 86 1 C87 8 87 8 85.35707092 10.89805603 C80.1744756 14.14300534 75.28554764 13.68862238 69.28686523 13.63110352 C67.99533539 13.63825882 66.70380554 13.64541412 65.37313843 13.65278625 C61.83789241 13.67128122 58.30340174 13.65837543 54.76818728 13.63869596 C51.06648317 13.62229539 47.36482636 13.63112413 43.6631012 13.63621521 C37.44821114 13.64073406 31.23362228 13.62487816 25.01879883 13.59692383 C17.83463918 13.56485849 10.65102225 13.56489361 3.466824 13.5821386 C-3.44717878 13.59800324 -10.36098266 13.59127154 -17.27497673 13.57420158 C-20.21632116 13.5673309 -23.15750616 13.56836357 -26.09884834 13.57574654 C-30.20495885 13.58483162 -34.31023097 13.56087508 -38.41625977 13.53344727 C-39.63767166 13.53997314 -40.85908356 13.54649902 -42.11750793 13.55322266 C-43.23486328 13.5404982 -44.35221863 13.52777374 -45.50343323 13.5146637 C-46.95934293 13.51045331 -46.95934293 13.51045331 -48.44466496 13.50615788 C-51.75343155 12.85076113 -52.95652868 11.63743309 -55 9 C-55.31452272 5.85477278 -55.42041821 3.84083641 -54 1 C-36.18 1.33 -18.36 1.66 0 2 C0 1.34 0 0.68 0 0 Z " fill="#FCC23B" transform="translate(240,405)"/>
<path d="M0 0 C42.24 0 84.48 0 128 0 C128 5.28 128 10.56 128 16 C127.67 16 127.34 16 127 16 C127 14.35 127 12.7 127 11 C85.42 11 43.84 11 1 11 C0.67 12.32 0.34 13.64 0 15 C0 10.05 0 5.1 0 0 Z " fill="#464646" transform="translate(121,238)"/>
<path d="M0 0 C0.83398819 -0.00921478 1.66797638 -0.01842957 2.52723694 -0.02792358 C3.47509567 -0.04698761 4.42295441 -0.06605164 5.39953613 -0.08569336 C6.42144547 -0.08387054 7.4433548 -0.08204773 8.49623108 -0.08016968 C10.07374901 -0.09302505 10.07374901 -0.09302505 11.68313599 -0.10614014 C13.90815856 -0.11763043 16.13325627 -0.11862443 18.35829163 -0.10995483 C21.76559977 -0.10363645 25.1694312 -0.15052846 28.5763092 -0.20126343 C30.73711211 -0.20580964 32.89792436 -0.2072163 35.05873108 -0.20516968 C36.07861618 -0.22358917 37.09850128 -0.24200867 38.14929199 -0.26098633 C40.84582922 -0.22566357 43.22765185 -0.13323909 45.84388733 0.52139282 C48.42518616 3.33169556 48.42518616 3.33169556 49.84388733 6.52139282 C50.14520569 7.18485718 50.44652405 7.84832153 50.75697327 8.53189087 C50.94549866 9.1097937 51.13402405 9.68769653 51.32826233 10.28311157 C51.54095764 10.92699829 51.75365295 11.57088501 51.97279358 12.23428345 C52.17775452 12.88590454 52.38271545 13.53752563 52.59388733 14.20889282 C52.81431702 14.87211548 53.0347467 15.53533813 53.26185608 16.21865845 C54.19735931 19.10361096 54.84388733 21.46949651 54.84388733 24.52139282 C33.06388733 24.52139282 11.28388733 24.52139282 -11.15611267 24.52139282 C-10.29144539 20.19805643 -9.15928919 16.13033783 -7.78111267 11.95889282 C-7.57228455 11.29953735 -7.36345642 10.64018188 -7.14830017 9.96084595 C-4.19949053 1.01552403 -4.19949053 1.01552403 0 0 Z " fill="#4C4C4C" transform="translate(234.15611267089844,120.47860717773438)"/>
<path d="M0 0 C1.45688736 -0.01925285 1.45688736 -0.01925285 2.94320679 -0.03889465 C4.00044952 -0.04628159 5.05769226 -0.05366852 6.14697266 -0.0612793 C7.22604889 -0.06935104 8.30512512 -0.07742279 9.41690063 -0.08573914 C11.70516341 -0.09959806 13.99344701 -0.11031208 16.28173828 -0.11816406 C19.78929584 -0.13539128 23.29591476 -0.17926384 26.80322266 -0.22338867 C29.0219657 -0.23351365 31.24071678 -0.24203036 33.45947266 -0.2487793 C35.03926407 -0.27504143 35.03926407 -0.27504143 36.65097046 -0.30183411 C38.1173143 -0.29744576 38.1173143 -0.29744576 39.61328125 -0.29296875 C40.9044838 -0.30176811 40.9044838 -0.30176811 42.22177124 -0.31074524 C44.43603516 0.17700195 44.43603516 0.17700195 46.15078735 1.97200012 C48.02798784 5.19257011 49.05946834 8.62796943 50.12353516 12.17700195 C50.34847656 12.88856445 50.57341797 13.60012695 50.80517578 14.33325195 C51.86770233 17.79534454 52.43603516 20.52406735 52.43603516 24.17700195 C30.98603516 24.17700195 9.53603516 24.17700195 -12.56396484 24.17700195 C-11.25987685 18.30860598 -10.02335953 13.22966796 -8.00146484 7.67700195 C-7.56705078 6.47043945 -7.13263672 5.26387695 -6.68505859 4.02075195 C-5.01543036 -0.21440259 -4.36972817 0.05006516 0 0 Z " fill="#4C4C4C" transform="translate(93.56396484375,43.822998046875)"/>
<path d="M0 0 C0.95116196 -0.00953201 1.90232391 -0.01906403 2.88230896 -0.02888489 C4.42762047 -0.02751778 4.42762047 -0.02751778 6.00415039 -0.02612305 C7.05961563 -0.03040817 8.11508087 -0.0346933 9.20252991 -0.03910828 C11.43774701 -0.04485885 13.67298282 -0.04534651 15.90820312 -0.04101562 C19.3343897 -0.03785785 22.75971145 -0.06129885 26.18579102 -0.08666992 C28.35440971 -0.08894299 30.52303074 -0.08964638 32.69165039 -0.08862305 C33.71983383 -0.09783279 34.74801727 -0.10704254 35.80735779 -0.11653137 C37.23882896 -0.10718819 37.23882896 -0.10718819 38.69921875 -0.09765625 C39.53923935 -0.09828568 40.37925995 -0.0989151 41.24473572 -0.0995636 C43.90957841 0.36008592 44.76085523 1.17894325 46.41430664 3.2746582 C47.30566406 5.2199707 47.30566406 5.2199707 48.01977539 7.3996582 C48.28081055 8.18856445 48.5418457 8.9774707 48.81079102 9.7902832 C49.07182617 10.61012695 49.33286133 11.4299707 49.60180664 12.2746582 C49.87444336 13.09450195 50.14708008 13.9143457 50.42797852 14.7590332 C52.41430664 20.85243076 52.41430664 20.85243076 52.41430664 24.2746582 C30.96430664 24.2746582 9.51430664 24.2746582 -12.58569336 24.2746582 C-11.75172591 19.27085351 -10.65517204 14.82238625 -9.14819336 10.0246582 C-8.82238281 8.94571289 -8.82238281 8.94571289 -8.48999023 7.8449707 C-6.76327865 2.30704886 -5.95970826 0.03271913 0 0 Z " fill="#4C4C4C" transform="translate(378.585693359375,43.725341796875)"/>
<path d="M0 0 C0.95116196 -0.00953201 1.90232391 -0.01906403 2.88230896 -0.02888489 C4.42762047 -0.02751778 4.42762047 -0.02751778 6.00415039 -0.02612305 C7.05961563 -0.03040817 8.11508087 -0.0346933 9.20252991 -0.03910828 C11.43774701 -0.04485885 13.67298282 -0.04534651 15.90820312 -0.04101562 C19.3343897 -0.03785785 22.75971145 -0.06129885 26.18579102 -0.08666992 C28.35440971 -0.08894299 30.52303074 -0.08964638 32.69165039 -0.08862305 C33.71983383 -0.09783279 34.74801727 -0.10704254 35.80735779 -0.11653137 C37.23882896 -0.10718819 37.23882896 -0.10718819 38.69921875 -0.09765625 C39.53923935 -0.09828568 40.37925995 -0.0989151 41.24473572 -0.0995636 C43.90957841 0.36008592 44.76085523 1.17894325 46.41430664 3.2746582 C47.30566406 5.2199707 47.30566406 5.2199707 48.01977539 7.3996582 C48.28081055 8.18856445 48.5418457 8.9774707 48.81079102 9.7902832 C49.07182617 10.61012695 49.33286133 11.4299707 49.60180664 12.2746582 C49.87444336 13.09450195 50.14708008 13.9143457 50.42797852 14.7590332 C52.41430664 20.85243076 52.41430664 20.85243076 52.41430664 24.2746582 C30.96430664 24.2746582 9.51430664 24.2746582 -12.58569336 24.2746582 C-10.30877028 12.89004282 -10.30877028 12.89004282 -8.58569336 7.7746582 C-8.09069336 6.27418945 -8.09069336 6.27418945 -7.58569336 4.7434082 C-5.86368897 0.49220988 -4.34080228 0.02383124 0 0 Z " fill="#4C4C4C" transform="translate(378.585693359375,120.725341796875)"/>
<path d="M0 0 C0.95123749 -0.00637985 1.90247498 -0.0127597 2.88253784 -0.01933289 C3.9179068 -0.02044571 4.95327576 -0.02155853 6.02001953 -0.02270508 C7.07689972 -0.02603348 8.13377991 -0.02936188 9.22268677 -0.03279114 C11.46388309 -0.03786546 13.705087 -0.04019931 15.94628906 -0.04003906 C19.38114866 -0.04222254 22.81568572 -0.06036481 26.25048828 -0.0793457 C28.42366426 -0.08228007 30.59684177 -0.08426458 32.77001953 -0.08520508 C33.80134003 -0.09239059 34.83266052 -0.09957611 35.89523315 -0.10697937 C36.85277496 -0.10390274 37.81031677 -0.10082611 38.796875 -0.09765625 C40.06143021 -0.09979378 40.06143021 -0.09979378 41.35153198 -0.10197449 C43.52783203 0.14526367 43.52783203 0.14526367 46.52783203 2.14526367 C47.41918945 4.06884766 47.41918945 4.06884766 48.13330078 6.39135742 C48.39433594 7.22860352 48.65537109 8.06584961 48.92431641 8.9284668 C49.18535156 9.80438477 49.44638672 10.68030273 49.71533203 11.58276367 C49.98796875 12.45481445 50.26060547 13.32686523 50.54150391 14.2253418 C52.52783203 20.70206583 52.52783203 20.70206583 52.52783203 24.14526367 C31.07783203 24.14526367 9.62783203 24.14526367 -12.47216797 24.14526367 C-11.16807998 18.2768677 -9.93156266 13.19792968 -7.90966797 7.64526367 C-7.47525391 6.43870117 -7.04083984 5.23213867 -6.59326172 3.98901367 C-4.9356427 -0.21567848 -4.33205537 0.01962447 0 0 Z " fill="#4C4C4C" transform="translate(93.47216796875,120.854736328125)"/>
<path d="M0 0 C0.95116196 -0.0127597 1.90232391 -0.02551941 2.88230896 -0.03866577 C4.42762047 -0.04200424 4.42762047 -0.04200424 6.00415039 -0.04541016 C7.58734825 -0.05539536 7.58734825 -0.05539536 9.20252991 -0.06558228 C11.43773654 -0.07572058 13.67297352 -0.08039893 15.90820312 -0.08007812 C19.3345712 -0.08445066 22.7596511 -0.1207573 26.18579102 -0.15869141 C28.35440639 -0.16455932 30.5230279 -0.16852888 32.69165039 -0.17041016 C33.71983383 -0.18478119 34.74801727 -0.19915222 35.80735779 -0.21395874 C36.76167191 -0.20780548 37.71598602 -0.20165222 38.69921875 -0.1953125 C39.53923935 -0.19816254 40.37925995 -0.20101257 41.24473572 -0.20394897 C43.41430664 0.29052734 43.41430664 0.29052734 45.15328979 2.19122314 C46.41647427 4.29413595 47.25806385 6.21971605 48.01977539 8.54833984 C48.28081055 9.33853516 48.5418457 10.12873047 48.81079102 10.94287109 C49.07182617 11.75884766 49.33286133 12.57482422 49.60180664 13.41552734 C49.87444336 14.23923828 50.14708008 15.06294922 50.42797852 15.91162109 C52.41430664 21.99506212 52.41430664 21.99506212 52.41430664 24.29052734 C30.63430664 24.29052734 8.85430664 24.29052734 -13.58569336 24.29052734 C-9.98569336 12.29052734 -9.98569336 12.29052734 -8.52319336 7.79052734 C-8.2022168 6.79021484 -7.88124023 5.78990234 -7.55053711 4.75927734 C-5.88289817 0.49228216 -4.32373061 0.03927716 0 0 Z " fill="#4C4C4C" transform="translate(236.585693359375,43.70947265625)"/>
<path d="M0 0 C0.99127899 -0.01606293 1.98255798 -0.03212585 3.00387573 -0.04867554 C7.54164096 -0.09292968 12.07925721 -0.13418506 16.6171875 -0.15722656 C19.01507256 -0.17380405 21.41290785 -0.20111726 23.81054688 -0.23925781 C27.25693553 -0.29384185 30.70216392 -0.31587229 34.14892578 -0.33056641 C35.22399384 -0.35323578 36.29906189 -0.37590515 37.40670776 -0.39926147 C40.14254745 -0.39144534 42.66146945 -0.34262424 45.34423828 0.19287109 C47.45727539 2.48071289 47.45727539 2.48071289 48.34423828 5.19287109 C48.74002075 6.18516724 48.74002075 6.18516724 49.14379883 7.19750977 C49.43444214 8.14460815 49.43444214 8.14460815 49.73095703 9.11083984 C50.05483398 10.15594727 50.05483398 10.15594727 50.38525391 11.22216797 C50.70526367 12.29047852 50.70526367 12.29047852 51.03173828 13.38037109 C51.25667969 14.10417969 51.48162109 14.82798828 51.71337891 15.57373047 C53.34423828 20.9025263 53.34423828 20.9025263 53.34423828 23.19287109 C31.89423828 23.19287109 10.44423828 23.19287109 -11.65576172 23.19287109 C-10.52982982 15.31134782 -10.52982982 15.31134782 -9.49951172 12.26318359 C-9.28166016 11.61349609 -9.06380859 10.96380859 -8.83935547 10.29443359 C-8.61376953 9.64216797 -8.38818359 8.98990234 -8.15576172 8.31787109 C-7.93017578 7.64240234 -7.70458984 6.96693359 -7.47216797 6.27099609 C-5.37078662 0.07875994 -5.37078662 0.07875994 0 0 Z " fill="#535353" transform="translate(377.65576171875,82.80712890625)"/>
<path d="M0 0 C0.88602402 0.00222061 1.77204803 0.00444122 2.68492126 0.00672913 C3.68588333 0.00680466 4.6868454 0.00688019 5.71813965 0.00695801 C6.80666733 0.01211929 7.89519501 0.01728058 9.01670837 0.02259827 C10.67928932 0.02472069 10.67928932 0.02472069 12.37545776 0.02688599 C15.93168281 0.03250418 19.48784596 0.04505977 23.04405212 0.05775452 C25.44834809 0.06276717 27.85264504 0.06733048 30.25694275 0.07142639 C36.16516716 0.08247952 42.07335522 0.09923535 47.98155212 0.12025452 C48.61287145 1.68491087 49.24280545 3.25012622 49.87217712 4.81556702 C50.22312439 5.6871344 50.57407166 6.55870178 50.93565369 7.4566803 C54.98155212 17.76031054 54.98155212 17.76031054 54.98155212 23.12025452 C33.53155212 23.12025452 12.08155212 23.12025452 -10.01844788 23.12025452 C-4.30246704 0.25633116 -4.30246704 0.25633116 0 0 Z " fill="#535353" transform="translate(91.01844787597656,82.87974548339844)"/>
<path d="M0 0 C0.88602402 0.00222061 1.77204803 0.00444122 2.68492126 0.00672913 C3.68588333 0.00680466 4.6868454 0.00688019 5.71813965 0.00695801 C6.80666733 0.01211929 7.89519501 0.01728058 9.01670837 0.02259827 C10.67928932 0.02472069 10.67928932 0.02472069 12.37545776 0.02688599 C15.93168281 0.03250418 19.48784596 0.04505977 23.04405212 0.05775452 C25.44834809 0.06276717 27.85264504 0.06733048 30.25694275 0.07142639 C36.16516716 0.08247952 42.07335522 0.09923535 47.98155212 0.12025452 C48.62714154 1.56426312 49.27182478 3.00867689 49.91612244 4.45326233 C50.27522705 5.2575769 50.63433167 6.06189148 51.00431824 6.89057922 C52.01221713 9.19022037 52.92678735 11.49172751 53.73155212 13.87025452 C53.97389587 14.56634827 54.21623962 15.26244202 54.46592712 15.97962952 C54.98155212 18.12025452 54.98155212 18.12025452 54.98155212 23.12025452 C33.86155212 23.12025452 12.74155212 23.12025452 -9.01844788 23.12025452 C-8.27434134 17.16740225 -7.53169828 13.1197011 -5.51844788 7.68275452 C-5.07501038 6.46716858 -4.63157288 5.25158264 -4.17469788 3.99916077 C-2.63148855 0.15677808 -2.63148855 0.15677808 0 0 Z " fill="#535353" transform="translate(233.01844787597656,82.87974548339844)"/>
<path d="M0 0 C21.78 0 43.56 0 66 0 C66 70.95 66 141.9 66 215 C65.67 215 65.34 215 65 215 C65 147.68 65 80.36 65 11 C43.55 11 22.1 11 0 11 C0 7.37 0 3.74 0 0 Z " fill="#404040" transform="translate(406,238)"/>
<path d="M0 0 C21.78 0 43.56 0 66 0 C66 3.63 66 7.26 66 11 C44.55 11 23.1 11 1 11 C1 78.32 1 145.64 1 215 C0.67 215 0.34 215 0 215 C0 144.05 0 73.1 0 0 Z " fill="#404040" transform="translate(40,238)"/>
<path d="M0 0 C2.33421485 4.00151116 2.78010313 7.1204125 4 12 C-17.45 12 -38.9 12 -61 12 C-60 5 -60 5 -59 2 C-39.53 2 -20.06 2 0 2 C0 1.34 0 0.68 0 0 Z " fill="#484848" transform="translate(427,94)"/>
<path d="M0 0 C0.33 0.66 0.66 1.32 1 2 C20.47 2 39.94 2 60 2 C62 8 62 8 62 12 C40.55 12 19.1 12 -3 12 C-2.01 8.04 -1.02 4.08 0 0 Z " fill="#484848" transform="translate(84,94)"/>
<path d="M0 0 C19.8 0 39.6 0 60 0 C62 6 62 6 62 11 C40.88 11 19.76 11 -2 11 C-1 3 -1 3 0 0 Z " fill="#484848" transform="translate(226,95)"/>
<path d="M0 0 C8.25 0 16.5 0 25 0 C25 6.27 25 12.54 25 19 C16.75 19 8.5 19 0 19 C0 12.73 0 6.46 0 0 Z " fill="#474747" transform="translate(101,160)"/>
<path d="M0 0 C8.25 0 16.5 0 25 0 C25 6.27 25 12.54 25 19 C16.75 19 8.5 19 0 19 C0 12.73 0 6.46 0 0 Z " fill="#474747" transform="translate(386,160)"/>
<path d="M0 0 C7.92 0 15.84 0 24 0 C24 6.27 24 12.54 24 19 C16.08 19 8.16 19 0 19 C0 12.73 0 6.46 0 0 Z " fill="#535353" transform="translate(244,160)"/>
<path d="M0 0 C7.92 0 15.84 0 24 0 C24 2.97 24 5.94 24 9 C19.08497242 10.29235715 14.22709898 10.11135517 9.1875 10.0625 C7.86202148 10.05573242 7.86202148 10.05573242 6.50976562 10.04882812 C4.33981441 10.03709866 2.16989828 10.01916495 0 10 C0 6.7 0 3.4 0 0 Z " fill="#535353" transform="translate(102,160)"/>
<path d="M0 0 C7.92 0 15.84 0 24 0 C24 2.97 24 5.94 24 9 C22.34605883 10.65394117 20.39684587 10.12999683 18.125 10.1328125 C17.14015625 10.13410156 16.1553125 10.13539063 15.140625 10.13671875 C14.10421875 10.13285156 13.0678125 10.12898437 12 10.125 C10.44539063 10.13080078 10.44539063 10.13080078 8.859375 10.13671875 C7.87453125 10.13542969 6.8896875 10.13414062 5.875 10.1328125 C4.96492188 10.13168457 4.05484375 10.13055664 3.1171875 10.12939453 C1 10 1 10 0 9 C0 6.03 0 3.06 0 0 Z " fill="#535353" transform="translate(386,160)"/>
<path d="M0 0 C0.9583374 0.00523682 1.9166748 0.01047363 2.90405273 0.01586914 C4.45576172 0.02070313 4.45576172 0.02070313 6.03881836 0.02563477 C7.12743164 0.03401367 8.21604492 0.04239258 9.33764648 0.05102539 C10.97636719 0.05779297 10.97636719 0.05779297 12.64819336 0.06469727 C15.3572008 0.07652699 18.06618028 0.09446308 20.77514648 0.11352539 C20.77514648 3.41352539 20.77514648 6.71352539 20.77514648 10.11352539 C12.85514648 10.11352539 4.93514648 10.11352539 -3.22485352 10.11352539 C-3.22485352 0.1645514 -3.22485352 0.1645514 0 0 Z " fill="#494949" transform="translate(247.224853515625,168.886474609375)"/>
<path d="M0 0 C0.33 0 0.66 0 1 0 C1.12375 1.093125 1.2475 2.18625 1.375 3.3125 C1.75464801 7.07381802 1.75464801 7.07381802 4 10 C6.4017007 10.46361458 6.4017007 10.46361458 9.2517395 10.39872742 C10.921866 10.41753464 10.921866 10.41753464 12.62573242 10.4367218 C13.85283936 10.43528671 15.07994629 10.43385162 16.34423828 10.43237305 C17.63200165 10.4425647 18.91976501 10.45275635 20.24655151 10.46325684 C23.78353258 10.49091058 27.32035288 10.50012258 30.85742807 10.50611091 C34.55173561 10.51547294 38.24592203 10.54167444 41.94015503 10.56611633 C48.93825963 10.60984506 55.93634081 10.63835276 62.93454063 10.66143972 C70.90064754 10.68845735 78.86663297 10.73237087 86.83265328 10.77772844 C103.22170736 10.87066592 119.61078318 10.94230482 136 11 C136 11.33 136 11.66 136 12 C118.72807491 12.0934121 101.45622857 12.16396376 84.18410873 12.20724869 C76.16448272 12.22788021 68.1450136 12.2560119 60.12548828 12.30175781 C53.13623681 12.34160774 46.14709894 12.36742853 39.15773702 12.37635398 C35.45634095 12.38157193 31.75526993 12.39384771 28.05397797 12.42292023 C23.92353351 12.4551009 19.79365531 12.45596061 15.66308594 12.45410156 C13.81918526 12.47567322 13.81918526 12.47567322 11.93803406 12.49768066 C10.81345291 12.49218201 9.68887177 12.48668335 8.5302124 12.48101807 C7.55311184 12.48470524 6.57601128 12.48839241 5.56930161 12.49219131 C2.24262529 11.85491261 1.04873743 10.65012547 -1 8 C-1.31452272 4.85477278 -1.42041821 2.84083641 0 0 Z " fill="#E0B250" transform="translate(186,406)"/>
<path d="M0 0 C0.33 0 0.66 0 1 0 C1 4.29 1 8.58 1 13 C-3.62 13 -8.24 13 -13 13 C-11.0614922 11.70766147 -9.08267939 10.47302859 -7.0625 9.3125 C-3.34114439 6.50249679 -2.06452414 4.12904828 0 0 Z " fill="#E8E8E8" transform="translate(511,499)"/>
<path d="M0 0 C1.62759408 2.17012544 3.2460364 4.34784456 4.8125 6.5625 C7.29033992 9.32352162 9.61884757 10.53995691 13 12 C13 12.33 13 12.66 13 13 C8.71 13 4.42 13 0 13 C0 8.71 0 4.42 0 0 Z " fill="#ECECEC" transform="translate(0,499)"/>
<path d="M0 0 C1.33521524 6.31192661 1.33521524 6.31192661 -0.1875 9.4375 C-2 11 -2 11 -6 11 C-5.625 8.5625 -5.625 8.5625 -5 6 C-4.34 5.67 -3.68 5.34 -3 5 C-3.99 4.34 -4.98 3.68 -6 3 C-6 2.34 -6 1.68 -6 1 C-3.92446352 0.4465236 -2.15634036 0 0 0 Z " fill="#F4C147" transform="translate(326,406)"/>
<path d="M0 0 C2.85984547 2.51632049 4.41468822 5.33885553 6.1875 8.6875 C6.71730469 9.68136719 7.24710937 10.67523438 7.79296875 11.69921875 C8.19128906 12.45847656 8.58960938 13.21773438 9 14 C7.35 13.67 5.7 13.34 4 13 C3.731875 12.030625 3.46375 11.06125 3.1875 10.0625 C2.795625 9.051875 2.40375 8.04125 2 7 C1.01 6.67 0.02 6.34 -1 6 C-0.67 4.02 -0.34 2.04 0 0 Z " fill="#E5D56F" transform="translate(297,359)"/>
<path d="M0 0 C0.33 0.66 0.66 1.32 1 2 C0.06421005 4.35981813 -0.93347808 6.69631264 -2 9 C-2.66 9 -3.32 9 -4 9 C-4 9.99 -4 10.98 -4 12 C-4.66 12 -5.32 12 -6 12 C-5.67 12.99 -5.34 13.98 -5 15 C-6.32 16.32 -7.64 17.64 -9 19 C-9.66 18.67 -10.32 18.34 -11 18 C-7.37 12.06 -3.74 6.12 0 0 Z " fill="#DFD171" transform="translate(217,354)"/>
<path d="M0 0 C0.33 0.66 0.66 1.32 1 2 C0.06421005 4.35981813 -0.93347808 6.69631264 -2 9 C-2.66 9 -3.32 9 -4 9 C-4.0825 9.94875 -4.165 10.8975 -4.25 11.875 C-5 15 -5 15 -7.0625 16.375 C-7.701875 16.58125 -8.34125 16.7875 -9 17 C-7.51481201 12.95698825 -5.57122002 9.38853744 -3.375 5.6875 C-2.74335938 4.61886719 -2.11171875 3.55023438 -1.4609375 2.44921875 C-0.97882813 1.64097656 -0.49671875 0.83273437 0 0 Z " fill="#DED273" transform="translate(205,374)"/>
<path d="M0 0 C1.65 0 3.3 0 5 0 C4.625 2.9375 4.625 2.9375 4 6 C3.01 6.495 3.01 6.495 2 7 C0.4375 5.75 0.4375 5.75 -1 4 C-0.6875 1.8125 -0.6875 1.8125 0 0 Z " fill="#EEEEEE" transform="translate(67,121)"/>
<path d="M0 0 C0 4.38968456 -2.12805101 5.76905739 -5 9 C-7 6 -7 6 -7 3 C-5.5459375 2.5359375 -5.5459375 2.5359375 -4.0625 2.0625 C-1.15934208 1.30476658 -1.15934208 1.30476658 0 0 Z " fill="#E8E8E8" transform="translate(447,118)"/>
<path d="M0 0 C0.66 0.33 1.32 0.66 2 1 C1.484375 1.680625 0.96875 2.36125 0.4375 3.0625 C-1.39207088 6.80118832 -0.86178872 9.00443413 0 13 C-0.66 13 -1.32 13 -2 13 C-2 12.34 -2 11.68 -2 11 C-2.66 11 -3.32 11 -4 11 C-4.25 5.375 -4.25 5.375 -2 2 C-1.34 2 -0.68 2 0 2 C0 1.34 0 0.68 0 0 Z " fill="#E4D674" transform="translate(240,392)"/>
<path d="M0 0 C0.99 0.33 1.98 0.66 3 1 C0.69 4.63 -1.62 8.26 -4 12 C-4.33 11.34 -4.66 10.68 -5 10 C-4.67 9.01 -4.34 8.02 -4 7 C-3.34 7 -2.68 7 -2 7 C-2.226875 6.401875 -2.45375 5.80375 -2.6875 5.1875 C-2.790625 4.465625 -2.89375 3.74375 -3 3 C-1.5625 1.25 -1.5625 1.25 0 0 Z " fill="#DFD271" transform="translate(239,354)"/>
<path d="M0 0 C1.875 1.5 1.875 1.5 3 3 C-0.20395416 3 -2.09399739 2.25664978 -5 1 C-5.33 1.99 -5.66 2.98 -6 4 C-6.99 4 -7.98 4 -9 4 C-8.67 3.01 -8.34 2.02 -8 1 C-5.20129973 -0.39935013 -3.09501208 -0.25265405 0 0 Z " fill="#D7C96D" transform="translate(259,296)"/>
<path d="M0 0 C0.33 0 0.66 0 1 0 C1.12375 1.0725 1.2475 2.145 1.375 3.25 C1.89643936 6.37863615 2.40088254 8.33480424 4 11 C0.125 9.125 0.125 9.125 -1 8 C-1.23529412 2.47058824 -1.23529412 2.47058824 0 0 Z " fill="#E7BA54" transform="translate(186,406)"/>
<path d="M0 0 C3.3 0 6.6 0 10 0 C8.92598892 2.91517292 8.22189824 4.77810176 6 7 C6 5.35 6 3.7 6 2 C3.03 1.505 3.03 1.505 0 1 C0 0.67 0 0.34 0 0 Z " fill="#D5CB76" transform="translate(241,377)"/>
<path d="M0 0 C2.61500768 2.36595933 4.38999603 4.86049226 6 8 C5.67 8.66 5.34 9.32 5 10 C4.67 9.01 4.34 8.02 4 7 C1.98491642 6.26676204 1.98491642 6.26676204 0 6 C0 4.02 0 2.04 0 0 Z " fill="#E0D372" transform="translate(316,391)"/>
<path d="M0 0 C0.33 0.66 0.66 1.32 1 2 C-0.25 5.5625 -0.25 5.5625 -2 9 C-2.99 9.33 -3.98 9.66 -5 10 C-3.66511872 6.40608886 -2.03977277 3.24509304 0 0 Z " fill="#DCCF74" transform="translate(195,391)"/>
<path d="M0 0 C2.64 0 5.28 0 8 0 C7.34 1.32 6.68 2.64 6 4 C3.53199953 2.84826645 1.95216435 1.95216435 0 0 Z " fill="#E7E7E7" transform="translate(116,0)"/>
<path d="M0 0 C2.55234718 2.45225513 4.31418658 4.86920364 6 8 C6 8.66 6 9.32 6 10 C5.01 9.67 4.02 9.34 3 9 C2.05078125 6.93359375 2.05078125 6.93359375 1.3125 4.4375 C1.06113281 3.61121094 0.80976563 2.78492188 0.55078125 1.93359375 C0.36902344 1.29550781 0.18726563 0.65742188 0 0 Z " fill="#DED373" transform="translate(278,327)"/>
</svg>
